<svg width="16" height="16" viewBox="0 0 16 16" fill="none" xmlns="http://www.w3.org/2000/svg">
<path d="M14.1025 0C15.0851 0.000206904 15.8932 0.747118 15.9902 1.7041L16 1.89746V14.1025L15.9902 14.2959C15.8932 15.2529 15.0851 15.9998 14.1025 16H1.89746L1.7041 15.9902C0.810669 15.8996 0.100364 15.1893 0.00976562 14.2959L0 14.1025V1.89746L0.00976562 1.7041C0.100393 0.810696 0.810688 0.100365 1.7041 0.00976562L1.89746 0H14.1025ZM0.949219 9.0957L9.53027 9.99609C9.87753 10.0325 9.87752 10.5387 9.53027 10.5752L0.949219 11.4756V11.9531L9.53027 12.8535C9.87753 12.89 9.87752 13.3962 9.53027 13.4326L0.977539 14.3311C1.07992 14.7443 1.45254 15.0506 1.89746 15.0508H14.1025C14.6263 15.0506 15.0506 14.6263 15.0508 14.1025V8.28613H0.949219V9.0957ZM12.2969 10.2637C13.0857 10.2637 13.7255 10.9035 13.7256 11.6924C13.7256 12.4813 13.0858 13.121 12.2969 13.1211C11.5079 13.1211 10.8682 12.4814 10.8682 11.6924C10.8683 10.9035 11.508 10.2637 12.2969 10.2637ZM1.89746 0.949219C1.37372 0.949441 0.949473 1.37373 0.949219 1.89746V7.71387H15.0508V6.9043L6.46973 6.00391C6.12248 5.96745 6.12247 5.46126 6.46973 5.4248L15.0508 4.52441V4.04688L6.46973 3.14648C6.12248 3.11003 6.12247 2.60384 6.46973 2.56738L15.0215 1.66992C14.9193 1.25637 14.5477 0.949407 14.1025 0.949219H1.89746ZM3.54199 2.7168C4.33079 2.71699 4.96969 3.35667 4.96973 4.14551C4.96965 4.93431 4.33076 5.57403 3.54199 5.57422C2.75306 5.57422 2.11336 4.93442 2.11328 4.14551C2.11331 3.35656 2.75303 2.7168 3.54199 2.7168Z" fill="#D0D0D0"/>
</svg>
