<svg width="20" height="20" viewBox="0 0 20 20" fill="none" xmlns="http://www.w3.org/2000/svg">
<path fill-rule="evenodd" clip-rule="evenodd" d="M18.6328 2.97923H2.62857V18.1411H18.6328V2.97923ZM1.76135 2.15765V18.9627H19.5V2.15765H1.76135Z" fill="#2DBD6A"/>
<path d="M6.87616 7.5352H7.27571V7.03538H7.28013L7.65761 7.5352H8.13442L7.69072 7.0082C7.99976 6.9601 8.09689 6.69869 8.09689 6.52093C8.09689 6.36199 8.03067 6.19887 7.89601 6.09849C7.79005 6.02111 7.67968 5.98765 7.39271 5.98765H6.87616V7.5352ZM7.27571 6.3348H7.42803C7.58917 6.3348 7.69734 6.40381 7.69734 6.54393C7.69734 6.61922 7.66864 6.76561 7.42361 6.76561H7.27571V6.3348Z" fill="#2DBD6A"/>
<path d="M9.37462 7.31144L9.45409 7.5352H9.90663L9.25763 5.98765H8.92871L8.27309 7.5352H8.72121L8.8073 7.31144H9.37462ZM9.08986 6.46864H9.09648L9.26425 6.99774H8.92209L9.08986 6.46864Z" fill="#2DBD6A"/>
<path d="M10.2972 7.5352H10.7144V6.3348H11.0345V5.98765H9.97488V6.3348H10.2972V7.5352Z" fill="#2DBD6A"/>
<path d="M11.2851 7.5352H12.1923V7.18805H11.6846V6.92245H12.1769V6.5753H11.6846V6.3348H12.1923V5.98765H11.2851V7.5352Z" fill="#2DBD6A"/>
<path d="M12.512 7.5352H13.0838C13.7041 7.5352 13.9248 7.17968 13.9248 6.75724C13.9248 6.58785 13.8873 6.42264 13.7747 6.27625C13.5628 5.98765 13.2361 5.98765 13.0529 5.98765H12.512V7.5352ZM12.9292 6.3348H13.1103C13.2957 6.3348 13.3796 6.408 13.4281 6.47701C13.4877 6.56484 13.5076 6.67568 13.5076 6.76352C13.5076 6.9831 13.4193 7.18805 13.1081 7.18805H12.9292V6.3348Z" fill="#2DBD6A"/>
<path d="M15.9496 7.31144L16.0291 7.5352H16.4816L15.8326 5.98765H15.5037L14.8481 7.5352H15.2962L15.3823 7.31144H15.9496ZM15.6649 6.46864H15.6715L15.8392 6.99774H15.4971L15.6649 6.46864Z" fill="#2DBD6A"/>
<path d="M17.7847 6.43937C17.7803 6.35153 17.7737 6.24697 17.6766 6.13404C17.5706 6.01483 17.3962 5.95837 17.2351 5.95837C16.9613 5.95837 16.6633 6.12358 16.6633 6.41427C16.6633 6.70496 16.9481 6.81371 17.0629 6.85763C17.3145 6.95801 17.383 6.9831 17.383 7.08558C17.383 7.15668 17.3234 7.23406 17.224 7.23406C17.171 7.23406 17.054 7.20269 17.054 7.02284H16.639V7.07303C16.639 7.2717 16.756 7.56448 17.2284 7.56448C17.6611 7.56448 17.798 7.31562 17.798 7.08976C17.798 6.90991 17.7207 6.77606 17.4161 6.6464C17.1225 6.52093 17.0783 6.50211 17.0783 6.41009C17.0783 6.33689 17.149 6.28879 17.2218 6.28879C17.3499 6.28879 17.3631 6.38708 17.3719 6.43937H17.7847Z" fill="#2DBD6A"/>
<path d="M3.63969 12.0165H4.97363C5.68318 12.0165 5.96132 11.9789 6.34731 11.6724C6.60275 11.4734 6.7333 11.1239 6.7333 10.8066C6.7333 10.6399 6.71628 10.1075 6.04079 9.88163C6.38137 9.69879 6.52896 9.38689 6.52896 9.08037C6.52896 8.84913 6.46652 8.60714 6.2792 8.4243C5.97267 8.10164 5.64344 8.03711 4.9339 8.03711H3.63969V12.0165ZM4.66711 8.9298H5.04742C5.21204 8.9298 5.50153 8.9298 5.50153 9.23094C5.50153 9.54822 5.19501 9.54822 5.04742 9.54822H4.66711V8.9298ZM4.66711 10.3979H5.1723C5.3426 10.3979 5.70588 10.3979 5.70588 10.7421C5.70588 11.1239 5.30854 11.1239 5.1723 11.1239H4.66711V10.3979Z" fill="#2DBD6A"/>
<path d="M7.87072 12.0165H10.2037V11.1239H8.89814V10.4409H10.164V9.54822H8.89814V8.9298H10.2037V8.03711H7.87072V12.0165Z" fill="#2DBD6A"/>
<path d="M14.1331 9.19868C14.1217 8.97282 14.1047 8.70394 13.855 8.41355C13.5825 8.10702 13.1341 7.96183 12.7197 7.96183C12.0158 7.96183 11.2495 8.38666 11.2495 9.13415C11.2495 9.88163 11.9818 10.1613 12.2769 10.2742C12.924 10.5323 13.1 10.5969 13.1 10.8604C13.1 11.0432 12.9467 11.2422 12.6913 11.2422C12.5551 11.2422 12.2542 11.1615 12.2542 10.699H11.1871V10.8281C11.1871 11.339 11.4879 12.0918 12.7027 12.0918C13.8152 12.0918 14.1672 11.4519 14.1672 10.8711C14.1672 10.4086 13.9685 10.0645 13.1851 9.73106C12.4302 9.4084 12.3167 9.36 12.3167 9.12339C12.3167 8.93517 12.4983 8.81149 12.6856 8.81149C13.0149 8.81149 13.0489 9.06424 13.0716 9.19868H14.1331Z" fill="#2DBD6A"/>
<path d="M15.7404 12.0165H16.8132V8.9298H17.6363V8.03711H14.9117V8.9298H15.7404V12.0165Z" fill="#2DBD6A"/>
<path d="M3.45481 14.7053H4.14031C4.50494 14.7053 4.64787 14.686 4.84623 14.5285C4.97749 14.4262 5.04459 14.2466 5.04459 14.0836C5.04459 13.9979 5.03584 13.7243 4.68871 13.6082C4.86373 13.5143 4.93957 13.354 4.93957 13.1965C4.93957 13.0776 4.90749 12.9533 4.81122 12.8593C4.65371 12.6935 4.48452 12.6604 4.11989 12.6604H3.45481V14.7053ZM3.98279 13.1191H4.17823C4.26283 13.1191 4.41159 13.1191 4.41159 13.2739C4.41159 13.4369 4.25407 13.4369 4.17823 13.4369H3.98279V13.1191ZM3.98279 13.8735H4.24241C4.32992 13.8735 4.51661 13.8735 4.51661 14.0504C4.51661 14.2466 4.31241 14.2466 4.24241 14.2466H3.98279V13.8735Z" fill="#2DBD6A"/>
<path d="M5.7416 14.7053H6.29292V12.6604H5.7416V14.7053Z" fill="#2DBD6A"/>
<path d="M7.34225 14.7053H7.89357V13.1191H8.31654V12.6604H6.91637V13.1191H7.34225V14.7053Z" fill="#2DBD6A"/>
<path d="M10.5 13.9399C10.465 14.0117 10.3249 14.2853 9.98073 14.2853C9.62193 14.2853 9.40024 13.9868 9.40024 13.6773C9.40024 13.3872 9.60735 13.0804 9.97781 13.0804C10.2753 13.0804 10.4387 13.2849 10.5 13.4369H11.0775C11.0192 13.1163 10.6575 12.6217 9.98073 12.6217C9.27481 12.6217 8.84892 13.1578 8.84892 13.6801C8.84892 14.2328 9.30981 14.744 9.98656 14.744C10.5087 14.744 10.9521 14.4235 11.0775 13.9399H10.5Z" fill="#2DBD6A"/>
<path d="M11.7529 13.2711C11.6887 13.4203 11.6683 13.5723 11.6683 13.7077C11.6683 14.2328 12.1233 14.744 12.803 14.744C13.4739 14.744 13.9465 14.2521 13.9465 13.6829C13.9465 13.1136 13.471 12.6217 12.8059 12.6217C12.2021 12.6217 11.8666 13.0058 11.7529 13.2711ZM12.2196 13.6773C12.2196 13.3899 12.4267 13.0804 12.8088 13.0804C13.2055 13.0804 13.3952 13.4203 13.3952 13.6856C13.3952 13.9481 13.2055 14.2853 12.8147 14.2853C12.4442 14.2853 12.2196 13.9924 12.2196 13.6773Z" fill="#2DBD6A"/>
<path d="M14.6409 14.7053H15.1922V12.6604H14.6409V14.7053Z" fill="#2DBD6A"/>
<path d="M15.982 14.7053H16.5099L16.4954 13.4645L16.5012 13.4618L17.3238 14.7053H17.8022V12.6604H17.2742L17.2975 13.9399L17.2917 13.9454L16.4574 12.6604H15.982V14.7053Z" fill="#2DBD6A"/>
<path d="M5.01833 16.554C4.98333 16.6258 4.84331 16.8994 4.4991 16.8994C4.14031 16.8994 3.91862 16.601 3.91862 16.2914C3.91862 16.0013 4.12573 15.6945 4.49619 15.6945C4.79372 15.6945 4.95708 15.899 5.01833 16.051H5.5959C5.53756 15.7305 5.17585 15.2358 4.4991 15.2358C3.79318 15.2358 3.3673 15.7719 3.3673 16.2942C3.3673 16.8469 3.82819 17.3582 4.50494 17.3582C5.02708 17.3582 5.47047 17.0376 5.5959 16.554H5.01833Z" fill="#2DBD6A"/>
<path d="M7.62029 17.0238L7.72531 17.3195H8.32329L7.46569 15.2745H7.03105L6.1647 17.3195H6.75685L6.87062 17.0238H7.62029ZM7.244 15.9101H7.25275L7.47444 16.6092H7.0223L7.244 15.9101Z" fill="#2DBD6A"/>
<path d="M10.5047 15.8714C10.4988 15.7553 10.4901 15.6171 10.3617 15.4679C10.2217 15.3104 9.99128 15.2358 9.77834 15.2358C9.41663 15.2358 9.02283 15.4541 9.02283 15.8382C9.02283 16.2224 9.39913 16.3661 9.55081 16.4241C9.88335 16.5567 9.97378 16.5899 9.97378 16.7253C9.97378 16.8193 9.89502 16.9215 9.76376 16.9215C9.69375 16.9215 9.53914 16.8801 9.53914 16.6424H8.99075V16.7087C8.99075 16.9713 9.14535 17.3582 9.76959 17.3582C10.3413 17.3582 10.5222 17.0293 10.5222 16.7308C10.5222 16.4932 10.4201 16.3163 10.0175 16.145C9.62957 15.9792 9.57123 15.9543 9.57123 15.8327C9.57123 15.736 9.66458 15.6724 9.76084 15.6724C9.93003 15.6724 9.94753 15.8023 9.9592 15.8714H10.5047Z" fill="#2DBD6A"/>
<path d="M11.3542 17.3195H11.9056V15.2745H11.3542V17.3195Z" fill="#2DBD6A"/>
<path d="M12.866 17.3195H13.3939L13.3794 16.0787L13.3852 16.0759L14.2078 17.3195H14.6862V15.2745H14.1582L14.1815 16.554L14.1757 16.5595L13.3414 15.2745H12.866V17.3195Z" fill="#2DBD6A"/>
<path d="M15.6394 15.8852C15.5753 16.0344 15.5548 16.1864 15.5548 16.3218C15.5548 16.8469 16.0099 17.3582 16.6896 17.3582C17.3605 17.3582 17.833 16.8662 17.833 16.297C17.833 15.7277 17.3576 15.2358 16.6925 15.2358C16.0887 15.2358 15.7532 15.6199 15.6394 15.8852ZM16.1062 16.2914C16.1062 16.004 16.3133 15.6945 16.6954 15.6945C17.0921 15.6945 17.2817 16.0344 17.2817 16.2997C17.2817 16.5623 17.0921 16.8994 16.7012 16.8994C16.3308 16.8994 16.1062 16.6065 16.1062 16.2914Z" fill="#2DBD6A"/>
<path d="M6.92533 5.93069C2.2485 10.4546 0.697096 12.3223 0.5 13.7344V1.41097C0.5 1.20472 0.676486 1.03752 0.894192 1.03752H14.1132C14.1227 1.03725 14.1313 1.03726 14.139 1.03752H14.1132C13.6824 1.04984 11.3602 1.64081 6.92533 5.93069Z" fill="#31CC73"/>
<path d="M15.5873 2.15766H11.5599C13.0145 1.24554 13.8498 1.04937 14.1036 1.03787L14.0863 1.03752H14.1132C14.1227 1.03725 14.1313 1.03727 14.139 1.03752H14.1132L14.1036 1.03787C14.8191 1.05621 15.4157 1.52612 15.5873 2.15766Z" fill="#249655"/>
<path d="M1.76141 11.3365C0.955024 12.3645 0.589107 13.0961 0.5 13.7345V13.8092C0.5 14.5318 1.0417 15.1347 1.76141 15.2731V11.3365Z" fill="#249655"/>
<path fill-rule="evenodd" clip-rule="evenodd" d="M4.0126 3.55892L2.8698 3.16024L3.28383 4.27319L2.22154 4.32636L3.04407 5.10559L2.09751 5.44675L3.97083 5.94611L5.77669 4.23529L5.26752 2.44243L4.89535 3.36219L4.06732 2.57773L4.0126 3.55892ZM2.5313 4.43892L3.3306 4.39891L3.52853 4.93098L3.18239 5.05574L2.5313 4.43892ZM3.47113 4.39188L3.65476 4.88548L3.94445 4.78107L3.96754 4.36704L3.47113 4.39188ZM3.287 5.15484L3.57341 5.05161L3.78859 5.63004L3.287 5.15484ZM3.14868 5.2047L3.72064 5.74656L2.52762 5.42854L3.14868 5.2047ZM5.43079 4.38216L4.1276 5.61676L4.48996 4.72126L5.43079 4.38216ZM5.27468 4.30162L4.55477 4.56109L4.64706 4.33303L5.27468 4.30162ZM4.38554 4.62209L4.49952 4.34041L4.10309 4.36025L4.0824 4.73135L4.38554 4.62209ZM5.37003 4.16879L4.69995 4.20232L4.79473 3.96808L5.37003 4.16879ZM4.55241 4.20971L4.66806 3.92389L4.13774 3.73888L4.11025 4.23183L4.55241 4.20971ZM5.43639 4.05564L4.84306 3.84865L4.94693 3.59194L5.43639 4.05564ZM4.71639 3.80445L4.84244 3.49295L4.18613 2.87118L4.1452 3.60518L4.71639 3.80445ZM5.5706 4.0019L4.99984 3.46118L5.24499 2.85535L5.5706 4.0019ZM3.09256 3.37425L4.00515 3.69262L3.9747 4.23862L3.42436 4.26616L3.09256 3.37425ZM4.32073 4.78226L4.07462 4.87096L4.04102 5.47352L4.32073 4.78226ZM3.69963 5.00612L3.93667 4.92068L3.90163 5.5491L3.69963 5.00612Z" fill="white"/>
<path fill-rule="evenodd" clip-rule="evenodd" d="M5.84117 2.32573C6.91876 3.3466 6.91876 5.00177 5.84117 6.02264C4.76358 7.04352 3.01646 7.04352 1.93887 6.02264C0.861279 5.00177 0.861279 3.3466 1.93887 2.32573C3.01646 1.30485 4.76358 1.30485 5.84117 2.32573ZM5.72968 2.43135C6.74569 3.39389 6.74569 4.95448 5.72968 5.91702C4.71366 6.87956 3.06638 6.87956 2.05036 5.91702C1.03435 4.95448 1.03435 3.39389 2.05036 2.43135C3.06638 1.46881 4.71366 1.46881 5.72968 2.43135Z" fill="white"/>
</svg>
