<svg width="32" height="32" viewBox="0 0 32 32" fill="none" xmlns="http://www.w3.org/2000/svg">
  <path fill-rule="evenodd" clip-rule="evenodd" d="M15.9999 23.5085C20.1461 23.5085 23.5071 20.1474 23.5071 16.0013C23.5071 11.8552 20.1461 8.49414 15.9999 8.49414C11.8538 8.49414 8.49274 11.8552 8.49274 16.0013C8.49274 20.1474 11.8538 23.5085 15.9999 23.5085ZM16.0002 19.2869C17.8147 19.2869 19.2857 17.8159 19.2857 16.0013C19.2857 14.1868 17.8147 12.7158 16.0002 12.7158C14.1856 12.7158 12.7146 14.1868 12.7146 16.0013C12.7146 17.8159 14.1856 19.2869 16.0002 19.2869Z" fill="#9aa1b1"/>
  <path d="M7.35226 22.852C6.42529 23.2629 5.2678 22.9873 4.83524 22.1338L0.1252 11.5078C-0.287349 10.4924 0.380744 9.49858 1.23757 9.13115C2.24805 8.69688 3.36042 9.0526 3.79802 9.99128L8.45627 20.5371C8.77528 21.4791 8.28423 22.4411 7.35226 22.852Z" fill="#9aa1b1"/>
  <path d="M28.2801 22.0821C28.7294 22.9539 29.8317 23.2646 30.7687 22.8721C31.7041 22.4796 32.1968 21.5409 31.9262 20.5806L27.2796 9.97961C26.8537 9.06936 25.6395 8.70857 24.6908 9.1362C23.7287 9.57041 23.211 10.7379 23.6118 11.6716L28.2801 22.0821Z" fill="#9aa1b1"/>
</svg>
