<svg width="20" height="20" viewBox="0 0 20 20" fill="none" xmlns="http://www.w3.org/2000/svg">
<path fill-rule="evenodd" clip-rule="evenodd" d="M10.1365 0.13472C10.1365 0.294066 10.0591 0.325514 9.66425 0.326448C9.40022 0.327103 9.3993 0.327617 9.3993 0.468458C9.3993 0.609486 9.39999 0.609813 9.64932 0.601588C9.9602 0.591261 10.1668 0.67458 10.2539 0.845374C10.3347 1.00383 10.3385 1.12453 10.2677 1.2822C10.1735 1.49173 10.0121 1.55939 9.55633 1.58019L9.13735 1.5993L9.10707 1.16631C9.09039 0.928132 9.07675 0.580094 9.07675 0.392851V0.0523832L9.24954 0.0340192C9.3446 0.0239725 9.58301 0.0121967 9.77944 0.00785094L10.1365 0V0.13472ZM11.0407 0.0625704C11.0437 0.0667293 11.093 0.206776 11.1501 0.373832C11.309 0.839019 11.2994 0.836448 11.5134 0.471168C11.6779 0.190327 11.7262 0.140281 11.832 0.140888C12.1003 0.142431 12.0908 0.190888 11.7033 0.797851C11.2184 1.5571 11.0612 1.69336 10.7586 1.61631C10.668 1.59327 10.6434 1.55734 10.6434 1.44771C10.6434 1.32935 10.6611 1.30841 10.7616 1.30841C10.9235 1.30841 11.0581 1.22804 11.0581 1.1314C11.0581 1.08729 10.9752 0.830468 10.8738 0.560748C10.7724 0.291028 10.6895 0.0521499 10.6895 0.0299537C10.6895 -0.00126127 11.0157 0.029019 11.0407 0.0625704ZM12.8492 0.399019C12.8624 0.41229 12.8295 0.559299 12.7761 0.725608C12.7228 0.891963 12.687 1.02804 12.6967 1.02804C12.7063 1.02804 12.8721 0.933412 13.065 0.817757C13.4491 0.58743 13.4646 0.583458 13.6821 0.660328L13.8316 0.713224L13.4843 0.917337C13.2933 1.02963 13.1277 1.13724 13.1162 1.15654C13.1048 1.17579 13.1635 1.41878 13.2467 1.69649L13.398 2.20145L13.2533 2.17009C13.0427 2.12449 13.0156 2.08907 12.9249 1.7407C12.8798 1.5672 12.828 1.40846 12.8099 1.38794C12.731 1.29855 12.5408 1.46234 12.4838 1.66869C12.4287 1.86808 12.4195 1.87659 12.2868 1.84967C12.2103 1.83416 12.1375 1.81117 12.1251 1.79865C12.1127 1.78608 12.2037 1.44808 12.3272 1.04752L12.5517 0.319299L12.6886 0.347056C12.7638 0.362337 12.8361 0.385701 12.8492 0.399019ZM9.50297 0.918784C9.47132 0.931775 9.44538 1.01421 9.44538 1.10201C9.44538 1.25659 9.45114 1.26168 9.62591 1.26168C9.72521 1.26168 9.83925 1.24893 9.87934 1.23332C9.96523 1.19991 9.97591 1.02402 9.89694 0.943926C9.84201 0.888225 9.61328 0.873644 9.50297 0.918784ZM5.89578 1.07168C5.9731 1.21822 5.95683 1.24145 5.667 1.39808C5.51495 1.48028 5.39054 1.56939 5.39054 1.59617C5.39054 1.64178 5.54803 1.94542 5.82302 2.42991C5.88864 2.54556 5.94259 2.65341 5.94292 2.66958C5.94324 2.6857 5.87933 2.72589 5.801 2.75879C5.63263 2.82953 5.68875 2.89785 5.2483 2.08561C5.06896 1.75486 4.93949 1.46715 4.96054 1.44626C5.0104 1.39682 5.77211 0.983131 5.81515 0.982103C5.83325 0.981682 5.86952 1.02196 5.89578 1.07168ZM14.5449 1.05061C14.6216 1.10505 14.6543 1.20495 14.6981 1.5179C14.7316 1.75687 14.7752 1.91589 14.8074 1.91589C14.8369 1.91589 15.0162 1.85523 15.2058 1.78107C15.52 1.65822 15.5619 1.65215 15.6774 1.7122C15.8224 1.78762 15.829 1.81234 15.7388 1.94294C15.7029 1.99495 15.5349 2.27827 15.3655 2.57248C15.1961 2.86673 15.0512 3.1143 15.0434 3.12262C15.0357 3.13093 14.9648 3.10388 14.8859 3.06248L14.7424 2.98724L14.8677 2.76701C14.9366 2.64584 15.0498 2.45262 15.1193 2.33752C15.1888 2.22248 15.2391 2.12178 15.2313 2.11374C15.2233 2.1057 15.0639 2.16084 14.8769 2.23622C14.4852 2.39421 14.5007 2.40533 14.4461 1.92766C14.4278 1.76706 14.3938 1.64752 14.3707 1.66201C14.3475 1.67654 14.2337 1.85523 14.1177 2.05916C14.0017 2.26308 13.8889 2.42991 13.867 2.42991C13.795 2.42991 13.5897 2.32103 13.6027 2.28981C13.6783 2.10827 14.3644 0.983037 14.4 0.982289C14.4261 0.981775 14.4913 1.01248 14.5449 1.05061ZM4.5287 2.11449C4.6415 2.24939 4.85908 2.51752 5.01219 2.71028L5.29064 3.06075L5.1678 3.16332L5.04495 3.26589L4.83369 3.02551L4.62247 2.78514L4.38443 2.98869C4.25352 3.10061 4.14644 3.20168 4.14644 3.21322C4.14644 3.22481 4.23058 3.34145 4.33338 3.47238L4.52032 3.71051L4.41401 3.79346C4.35554 3.83911 4.28698 3.87575 4.26163 3.87495C4.23629 3.87411 4.03931 3.65248 3.8239 3.38238C3.26318 2.67939 3.28935 2.72533 3.38703 2.61584C3.50564 2.4829 3.55158 2.49837 3.73197 2.73187C3.82053 2.84654 3.90587 2.94117 3.92153 2.94215C3.95863 2.94444 4.42291 2.56977 4.42291 2.53757C4.42291 2.52402 4.34103 2.41378 4.24095 2.29252L4.05894 2.0721L4.15902 1.97065C4.21404 1.91481 4.27362 1.86916 4.29136 1.86916C4.30909 1.86916 4.4159 1.97958 4.5287 2.11449ZM17.2325 3.08341C17.2325 3.10154 17.191 3.15444 17.1404 3.20094C17.0357 3.29706 17.0377 3.29822 16.6463 2.92542C16.4558 2.74393 16.4499 2.74187 16.3583 2.82589C16.3069 2.87308 16.2649 2.92827 16.2649 2.9486C16.2649 2.96888 16.363 3.07953 16.4829 3.19439C16.6989 3.4014 16.7001 3.40421 16.614 3.5007C16.5662 3.5543 16.5147 3.59799 16.4996 3.5978C16.4846 3.59762 16.3893 3.51453 16.2879 3.41318C16.1865 3.31182 16.0842 3.22785 16.0605 3.22659C16.0368 3.22533 15.9689 3.27051 15.9096 3.32701L15.8017 3.42977L16.1139 3.72117L16.4261 4.01262L16.3263 4.11556C16.2094 4.23621 16.2337 4.25023 15.6757 3.74084L15.3457 3.43958L15.6325 3.13201C15.7902 2.96285 16.0299 2.70397 16.1652 2.55678L16.4111 2.28911L16.8218 2.66981C17.0477 2.87916 17.2325 3.06533 17.2325 3.08341ZM3.38201 3.75696L3.95863 4.21949L3.86435 4.35378C3.75671 4.50705 3.81169 4.53093 3.27373 4.09738C3.12015 3.9736 2.9945 3.88649 2.9945 3.90383C2.9945 3.92112 3.05997 4.19364 3.13997 4.50935L3.28543 5.08341L3.19314 5.20238L3.10085 5.3214L2.58892 4.90776C2.30734 4.68028 2.02991 4.4607 1.9724 4.41986L1.86785 4.34561L1.98904 4.22271L2.11022 4.09981L2.39599 4.32794C2.8852 4.71846 2.87778 4.7143 2.84212 4.57902C2.56344 3.52276 2.55492 3.46981 2.64684 3.36682C2.69495 3.3129 2.75033 3.27453 2.76987 3.28159C2.78941 3.28865 3.0649 3.50252 3.38201 3.75696ZM17.7758 3.68836L17.8756 3.82528L17.6462 3.99607C17.52 4.09 17.4168 4.18607 17.4168 4.20958C17.4168 4.23308 17.4946 4.25252 17.5896 4.25276C17.6847 4.25294 17.871 4.26635 18.0037 4.28252C18.2064 4.30724 18.2637 4.33687 18.3622 4.4679L18.4796 4.62388L18.0471 4.59505L17.6145 4.56622L17.4696 4.97248C17.3899 5.19589 17.3243 5.39341 17.324 5.41131C17.3236 5.42925 17.3043 5.47434 17.2811 5.51154C17.2463 5.56729 17.2225 5.55916 17.1451 5.46481C17.0237 5.31692 17.0254 5.25491 17.1608 4.87659C17.2227 4.70355 17.263 4.54491 17.2502 4.52397C17.2035 4.44724 16.9837 4.48916 16.8367 4.6028C16.6477 4.74902 16.6083 4.74874 16.5125 4.60037C16.4396 4.48762 16.4402 4.47771 16.523 4.4178C16.5711 4.38299 16.8489 4.17467 17.1404 3.95491C17.4318 3.73514 17.6715 3.55444 17.6731 3.55336C17.6747 3.55229 17.7209 3.61304 17.7758 3.68836ZM1.76985 4.92145C1.84951 4.98051 1.84892 4.99103 1.75625 5.17533L1.65954 5.36752L2.20703 5.65967L2.75448 5.95187L2.68218 6.10561L2.60993 6.25935L2.09382 5.98014C1.80993 5.82659 1.55402 5.70093 1.52508 5.70093C1.49614 5.70093 1.43786 5.77453 1.39556 5.86449C1.31031 6.0457 1.29764 6.05103 1.13291 5.97491L1.01799 5.92182L1.13618 5.68285C1.38874 5.17234 1.57641 4.85981 1.63037 4.85981C1.66133 4.85981 1.72409 4.88757 1.76985 4.92145ZM19.1894 6.16206C19.1648 6.18537 19.1026 6.21729 19.0511 6.23299C18.9713 6.25729 18.9322 6.20972 18.7866 5.91112C18.6925 5.71841 18.5999 5.5615 18.5806 5.56238C18.5614 5.56332 18.5013 5.58958 18.4469 5.6208L18.3482 5.67757L18.4505 5.89149C18.6228 6.25173 18.623 6.255 18.4834 6.32823L18.3551 6.39551L18.2082 6.09346C18.0828 5.83561 18.0496 5.79822 17.981 5.83808C17.7689 5.96121 17.7696 5.95145 17.9427 6.32635C18.1106 6.68991 18.1354 6.77519 18.0734 6.77636C18.0544 6.77668 17.9958 6.78869 17.9431 6.80304C17.8598 6.82575 17.8158 6.76425 17.6047 6.33023C17.4546 6.02164 17.3784 5.81467 17.405 5.78771C17.4286 5.76374 17.7364 5.59939 18.089 5.42248L18.73 5.10084L18.9821 5.61023C19.1417 5.9329 19.2177 6.13519 19.1894 6.16206ZM1.58153 6.6836L2.26504 6.88808L2.23763 7.0271C2.22256 7.10355 2.20026 7.17617 2.18809 7.18855C2.17593 7.20089 1.97724 7.15355 1.74658 7.08332C1.51591 7.01313 1.31695 6.96603 1.30451 6.97869C1.29202 6.99131 1.4367 7.21117 1.62599 7.4672C1.9031 7.84206 1.96563 7.95668 1.94692 8.05584C1.93416 8.12355 1.90628 8.18986 1.88504 8.20318C1.86375 8.21654 1.52282 8.12827 1.12738 8.00706C0.416542 7.78916 0.40871 7.78528 0.437555 7.66668C0.453636 7.6007 0.482065 7.53079 0.500727 7.51126C0.519434 7.49178 0.736967 7.53743 0.984174 7.61266L1.43362 7.74953L1.35395 7.62621C1.31013 7.55836 1.15333 7.33743 1.00546 7.13523C0.857646 6.93304 0.736968 6.74313 0.737336 6.71322C0.738811 6.58374 0.798988 6.44472 0.846402 6.46121C0.874786 6.47103 1.20558 6.57112 1.58153 6.6836ZM0.367333 6.76201C0.434929 6.84916 0.456907 6.92542 0.438061 7.00734C0.404425 7.15332 0.210207 7.33645 0.0890226 7.33645C-0.0579653 7.33645 -0.0125334 7.14967 0.149199 7.08916C0.234489 7.05724 0.261077 6.8878 0.184957 6.86136C0.132889 6.84332 0.176064 6.63551 0.231864 6.63551C0.252415 6.63551 0.313376 6.69243 0.367333 6.76201ZM19.5834 7.15285C19.7151 7.62182 19.6831 7.8178 19.4489 7.97738C19.1154 8.20472 18.7343 8.01991 18.6157 7.57337C18.5644 7.38023 18.5563 7.37313 18.4157 7.39916C18.3352 7.41407 18.2253 7.43935 18.1714 7.45537C18.0915 7.47911 18.0641 7.45673 18.0214 7.33276C17.9928 7.24934 17.9746 7.17612 17.981 7.17005C18.0109 7.14196 19.2943 6.78453 19.3802 6.78037C19.4635 6.7764 19.4928 6.83023 19.5834 7.15285ZM9.34437 7.07537C9.97955 7.3728 10.2721 8.01668 10.1381 8.82243C10.0225 9.51724 9.61162 10.0974 9.05063 10.3579C8.62634 10.5549 8.20082 10.6041 6.9047 10.6058C5.84523 10.6073 5.7134 10.599 5.6277 10.5257L5.53213 10.4439L5.8256 8.80192C6.11396 7.18836 6.16073 6.99612 6.27703 6.94542C6.30896 6.93145 6.94681 6.92439 7.69442 6.92967L9.05371 6.93925L9.34437 7.07537ZM14.7196 6.99089C14.7602 7.03215 14.7836 7.10051 14.7714 7.14276C14.7592 7.18505 14.736 7.30374 14.7198 7.40654C14.6707 7.71935 14.603 7.89561 14.5133 7.9443C14.3821 8.01547 10.9998 8.00631 10.9291 7.93458C10.8605 7.86505 10.86 7.77519 10.9256 7.3929C11.0131 6.88332 10.8785 6.91589 12.8979 6.91589C14.4409 6.91589 14.6542 6.92467 14.7196 6.99089ZM19.0295 7.21659C18.8582 7.28028 18.8457 7.33846 18.9534 7.57009C18.9929 7.65486 19.0441 7.68692 19.1403 7.68692C19.3278 7.68692 19.3825 7.57701 19.3127 7.34079C19.2503 7.12944 19.2566 7.1322 19.0295 7.21659ZM7.41796 8.23608C7.41796 8.24257 7.37649 8.46855 7.3258 8.73832C7.27512 9.00808 7.23365 9.24458 7.23365 9.26392C7.23365 9.3357 8.11212 9.30201 8.27422 9.22402C8.48544 9.12234 8.61598 8.89589 8.61598 8.63107C8.61598 8.45654 8.594 8.40047 8.49456 8.32117C8.38946 8.23734 8.30896 8.2243 7.89555 8.2243C7.63286 8.2243 7.41796 8.22958 7.41796 8.23608ZM0.579427 8.60981C0.56671 8.69336 0.543533 8.88257 0.527958 9.03037L0.499666 9.29906H0.664256C0.820459 9.29906 0.828846 9.29103 0.828846 9.14136C0.828846 9.05463 0.841794 8.91794 0.857644 8.83762C0.88225 8.71276 0.906624 8.69159 1.0256 8.69159H1.16475L1.13771 9.01869C1.11812 9.25589 1.12577 9.34598 1.16558 9.34645C1.19581 9.34678 1.26585 9.35939 1.32123 9.37449C1.43154 9.40448 1.43942 9.37986 1.49836 8.82009C1.52522 8.56477 1.53296 8.5514 1.65387 8.5514C1.72386 8.5514 1.79067 8.56112 1.80237 8.57294C1.83472 8.60575 1.731 9.66145 1.69147 9.7015C1.65622 9.73729 0.285957 9.63467 0.21251 9.59079C0.174634 9.56813 0.197857 9.10135 0.259049 8.65654C0.285128 8.46687 0.293469 8.45794 0.444512 8.45794C0.596937 8.45794 0.601821 8.46341 0.579427 8.60981ZM13.9234 8.65257C14.55 8.95042 14.8231 9.53589 14.7082 10.335C14.5878 11.1728 14.1749 11.7152 13.4311 12.0127C13.1643 12.1194 13.1029 12.1239 11.6684 12.1399C10.1848 12.1564 10.1821 12.1562 10.1457 12.0564C10.0931 11.9124 10.6732 8.69547 10.7718 8.58402C10.8411 8.50575 10.9459 8.50079 12.2539 8.51392L13.6615 8.52804L13.9234 8.65257ZM19.4786 8.57654C19.6975 8.6693 19.8021 8.76762 19.9099 8.98178C20.1527 9.4642 19.8818 10.071 19.3716 10.1878C18.7315 10.3342 18.1966 9.6586 18.4553 9.03056C18.5508 8.79888 18.649 8.69467 18.8683 8.59257C19.0946 8.48715 19.2575 8.48285 19.4786 8.57654ZM19.044 8.88673C18.6515 8.99266 18.5825 9.56967 18.9369 9.78201C19.0982 9.87864 19.27 9.88112 19.4452 9.78925C19.6157 9.69977 19.6746 9.58743 19.6746 9.35149C19.6746 9.02014 19.3731 8.79794 19.044 8.88673ZM11.9796 9.77542C11.9796 9.78621 11.9382 10.024 11.8875 10.3037C11.8368 10.5835 11.7953 10.8294 11.7953 10.8501C11.7953 10.9012 12.4653 10.896 12.6898 10.8432C12.9711 10.7771 13.1424 10.5717 13.1665 10.2719C13.1844 10.0498 13.1735 10.011 13.0643 9.90762C12.9537 9.8029 12.8965 9.79019 12.4609 9.77383C12.1962 9.76388 11.9796 9.76458 11.9796 9.77542ZM1.04371 10.2867C1.16028 10.3848 1.24354 10.5954 1.24354 10.7921V10.9813H1.52001H1.79648V11.1387V11.296L1.05767 11.3567C0.606751 11.3937 0.302317 11.4006 0.276375 11.3743C0.253014 11.3506 0.22781 11.1491 0.220345 10.9264C0.208595 10.5757 0.219698 10.5039 0.303283 10.3893C0.471697 10.1584 0.831886 10.1084 1.04371 10.2867ZM0.573759 10.5925C0.51736 10.6497 0.502939 10.7204 0.520495 10.8534C0.533765 10.9537 0.553993 11.0452 0.565374 11.0568C0.576801 11.0684 0.673195 11.0637 0.779589 11.0465L0.973022 11.0151L0.941783 10.823C0.924642 10.7173 0.889669 10.6046 0.86405 10.5724C0.79885 10.4905 0.665178 10.4998 0.573759 10.5925ZM19.2313 10.708L19.963 10.8093L19.9334 11.1319C19.8983 11.5147 19.8159 11.7355 19.6692 11.8397C19.5133 11.9505 19.352 11.9333 19.2049 11.7903C19.1338 11.7213 19.0756 11.69 19.0756 11.721C19.0756 11.7519 19.006 11.8108 18.921 11.852C18.7787 11.9208 18.7537 11.9206 18.6049 11.849C18.4349 11.7672 18.3384 11.6136 18.3384 11.425C18.3384 11.2351 18.4399 10.6075 18.4707 10.6071C18.4866 10.6069 18.8289 10.6523 19.2313 10.708ZM18.6499 11.1799C18.6238 11.4297 18.6782 11.5421 18.825 11.5421C18.9517 11.5421 19.0295 11.4006 19.0295 11.1702C19.0295 11.0318 18.9621 10.9813 18.7772 10.9813C18.6858 10.9813 18.6676 11.0095 18.6499 11.1799ZM6.83406 11.1649C6.90382 11.2356 6.77462 11.9608 6.67403 12.0628C6.59929 12.1386 6.5111 12.1495 5.97213 12.1495C5.49633 12.1495 5.3434 12.1344 5.30152 12.0833C5.25972 12.0322 5.26392 11.9283 5.3199 11.629C5.3598 11.4157 5.41086 11.2224 5.4333 11.1996C5.45578 11.1768 5.54107 11.1443 5.62286 11.1273C5.83528 11.0833 6.78254 11.1126 6.83406 11.1649ZM19.3255 11.1373C19.3112 11.1751 19.3061 11.2764 19.3143 11.3624C19.3255 11.4817 19.3529 11.5222 19.4296 11.5332C19.5513 11.5508 19.6405 11.406 19.6199 11.2243C19.6086 11.1258 19.5777 11.0949 19.4785 11.0833C19.3987 11.074 19.3419 11.094 19.3255 11.1373ZM8.96428 13.5981C8.99962 13.5981 9.06201 13.6499 9.10288 13.7132C9.1655 13.8101 9.16845 13.8551 9.12168 13.9989C9.07459 14.1435 9.02303 14.1898 8.78347 14.3022L8.50078 14.435L8.76896 14.4371C9.02017 14.4391 9.03616 14.4459 9.02238 14.5444C9.00861 14.6426 8.98211 14.6504 8.62132 14.6632L8.23505 14.6769L8.2645 14.5275C8.30422 14.3261 8.34767 14.2815 8.64095 14.1407C8.82471 14.0524 8.89244 13.9942 8.89244 13.9244C8.89244 13.7843 8.76582 13.7577 8.64533 13.8725C8.55377 13.9597 8.5305 13.9639 8.4536 13.9068C8.37582 13.8491 8.37356 13.8327 8.43337 13.7596C8.51815 13.656 8.75753 13.5478 8.83862 13.5764C8.87235 13.5884 8.92889 13.5981 8.96428 13.5981ZM10.9544 13.6826C11.0345 13.7849 11.0263 13.9772 10.9365 14.1073C10.8949 14.1674 10.755 14.2655 10.6255 14.3253L10.39 14.4339L10.6485 14.4365C10.8989 14.4392 10.9064 14.4429 10.8851 14.5561C10.8638 14.6689 10.8507 14.6729 10.4998 14.6729H10.1365V14.5408C10.1365 14.3881 10.2704 14.2453 10.5052 14.1472C10.6995 14.0661 10.8015 13.9517 10.7652 13.8557C10.731 13.7654 10.6235 13.7651 10.5348 13.8551C10.4493 13.9418 10.2748 13.9473 10.2748 13.8633C10.2748 13.7806 10.4591 13.612 10.5743 13.5893C10.7204 13.5605 10.8918 13.6026 10.9544 13.6826ZM10.0181 13.6715C10.1611 13.8166 10.0636 14.4271 9.87316 14.579C9.63816 14.7665 9.21499 14.6507 9.21499 14.3989C9.21499 14.132 9.3147 13.8014 9.42473 13.7033C9.5679 13.5757 9.90569 13.5576 10.0181 13.6715ZM11.6532 13.75C11.6511 13.8336 11.6148 14.0701 11.5726 14.2757C11.5043 14.6081 11.4836 14.6513 11.3853 14.6654C11.2656 14.6825 11.2654 14.6747 11.3633 14.0979C11.3925 13.9263 11.3896 13.9212 11.2781 13.9495C11.1937 13.971 11.1546 13.9574 11.1324 13.8986C11.0966 13.8041 11.0814 13.8209 11.3115 13.6995C11.5837 13.5559 11.6579 13.5669 11.6532 13.75ZM9.59167 13.8453C9.55002 13.8962 9.45017 14.2474 9.44648 14.3558C9.44588 14.3742 9.48638 14.4115 9.53647 14.4387C9.60817 14.4776 9.64609 14.4693 9.71465 14.3998C9.828 14.2849 9.89242 13.8813 9.80625 13.8259C9.71861 13.7696 9.64844 13.7759 9.59167 13.8453ZM17.4744 14.3641C17.5763 14.4425 17.5746 14.4814 17.4629 14.6262C17.4133 14.6904 17.3723 14.7659 17.3718 14.7938C17.3712 14.8218 17.588 15.0005 17.8537 15.191C18.1193 15.3815 18.3365 15.5479 18.3364 15.5607C18.3364 15.5736 18.2972 15.6357 18.2494 15.6987L18.1626 15.8134L17.9164 15.6455C17.781 15.5531 17.5527 15.3913 17.4091 15.2857L17.148 15.0939L17.0111 15.2828L16.8741 15.4717L16.7569 15.3643L16.6397 15.257L16.9707 14.7798C17.1527 14.5173 17.3224 14.3025 17.3477 14.3023C17.373 14.3021 17.4301 14.33 17.4744 14.3641ZM3.25221 14.8946C3.48403 15.233 3.48375 15.4732 3.25134 15.6893C2.98063 15.941 2.64348 15.8672 2.39701 15.5025L2.28439 15.3358L2.0834 15.4761C1.89075 15.6105 1.87877 15.6129 1.79339 15.5345C1.74441 15.4896 1.70432 15.4271 1.70432 15.3957C1.70432 15.3642 1.97899 15.1362 2.31467 14.8889L2.92497 14.4393L3.00468 14.5444C3.0485 14.6022 3.15992 14.7598 3.25221 14.8946ZM2.68094 15.0372L2.52861 15.1654L2.6861 15.3501C2.83249 15.5218 2.85216 15.5309 2.9651 15.4787C3.04168 15.4434 3.08665 15.3853 3.08665 15.3219C3.08665 15.2181 2.91865 14.9056 2.86401 14.9078C2.8471 14.9085 2.76471 14.9667 2.68094 15.0372ZM16.6202 15.57L16.728 15.6727L16.4401 15.9672L16.1523 16.2617L16.2544 16.3653L16.3566 16.4689L16.5874 16.2383L16.8183 16.0077L16.9202 16.1111L17.0222 16.2145L16.7946 16.4487L16.5671 16.6829L16.6948 16.8111L16.8225 16.9393L17.1081 16.6197L17.3938 16.3002L17.507 16.4228L17.6202 16.5454L17.207 16.9645L16.7938 17.3836L16.2422 16.8228L15.6907 16.262L16.0804 15.8646C16.2948 15.6461 16.4797 15.4673 16.4913 15.4673C16.5029 15.4673 16.5609 15.5135 16.6202 15.57ZM4.28348 16.0938C4.48686 16.2971 4.6533 16.4778 4.6533 16.4955C4.6533 16.5131 4.61109 16.5663 4.55953 16.6136C4.46728 16.6983 4.46115 16.695 4.17699 16.4094L3.88822 16.1192L3.77842 16.2377L3.66862 16.3562L3.90992 16.5789L4.15128 16.8015L4.03125 16.9159C3.96047 16.9833 3.89758 17.0116 3.87795 16.9848C3.85965 16.9597 3.75759 16.8566 3.65115 16.7557C3.46168 16.576 3.45564 16.5739 3.36427 16.6578C3.31294 16.7049 3.27096 16.7659 3.27096 16.7934C3.27096 16.8208 3.39445 16.97 3.5454 17.1249L3.81989 17.4065L3.73446 17.5206L3.64899 17.6346L3.21807 17.2232C2.98109 16.997 2.79074 16.8021 2.79507 16.7902C2.82166 16.718 3.83864 15.6982 3.87242 15.71C3.89513 15.7178 4.08009 15.8906 4.28348 16.0938ZM15.6859 17.1767C15.8302 18.0033 15.8204 18.1628 15.6147 18.3383C15.4415 18.4861 15.4184 18.4865 15.3258 18.343C15.2551 18.2337 15.2572 18.2224 15.3697 18.1083C15.4347 18.0424 15.4813 17.9521 15.4732 17.9078C15.4642 17.8583 15.249 17.718 14.9159 17.5447L14.3734 17.2623L14.5226 17.1504L14.6718 17.0385L15.0306 17.2311C15.2279 17.337 15.3894 17.4029 15.3894 17.3776C15.3894 17.3522 15.3557 17.1814 15.3146 16.9978L15.2397 16.6641L15.3632 16.5563C15.4311 16.4971 15.5029 16.4486 15.5227 16.4486C15.5426 16.4486 15.616 16.7762 15.6859 17.1767ZM5.20595 16.8813C5.20609 16.9008 5.13213 17.0237 5.04159 17.1544C4.95105 17.285 4.88502 17.4001 4.89493 17.4101C4.90479 17.4202 5.09578 17.3773 5.3193 17.315L5.72571 17.2016L5.88887 17.314C6.06512 17.4355 6.06456 17.4361 5.71308 17.5237C5.59904 17.5521 5.44012 17.5963 5.3599 17.6218L5.21402 17.6682L5.24 18.2033C5.25428 18.4975 5.25055 18.7383 5.23171 18.7383C5.21286 18.7383 5.13918 18.7035 5.06799 18.6608C4.94534 18.5873 4.93778 18.5632 4.92267 18.1974C4.91391 17.9851 4.89212 17.7967 4.87433 17.7786C4.80272 17.7061 4.61358 17.8128 4.49695 17.9914L4.37342 18.1808L4.23643 18.0987C4.16109 18.0536 4.10488 18.0036 4.11142 17.9874C4.11801 17.9714 4.30753 17.6736 4.53257 17.3258L4.94174 16.6936L5.07366 16.7697C5.14628 16.8115 5.20577 16.8618 5.20595 16.8813ZM14.422 17.9679C14.6367 18.4396 14.6814 18.5075 14.7642 18.4876C14.8437 18.4685 14.8804 18.5112 14.9849 18.7444L15.1104 19.0243L14.9619 19.0879C14.8186 19.1493 14.811 19.1469 14.7443 19.0178L14.6752 18.884L14.3757 19.0234C14.211 19.1001 14.0208 19.1844 13.9532 19.2108C13.834 19.2574 13.8322 19.2637 13.8941 19.4141C13.9568 19.5664 13.9555 19.5704 13.8198 19.6274C13.6577 19.6955 13.6813 19.7138 13.5262 19.4005C13.429 19.2044 13.4144 19.1374 13.457 19.0852C13.5761 18.9398 13.4668 18.4169 13.2159 17.9309C13.1788 17.8589 13.2365 17.8176 13.6477 17.6219C13.9087 17.4976 14.1341 17.4025 14.1487 17.4106C14.1632 17.4186 14.2863 17.6694 14.422 17.9679ZM6.98934 17.8082C7.46431 18.0414 7.58503 18.7787 7.20379 19.1183C6.59607 19.6597 5.63212 19.136 5.7786 18.3442C5.8133 18.1566 5.99061 17.9237 6.19492 17.7973C6.38595 17.6792 6.73633 17.684 6.98934 17.8082ZM13.7421 17.9066C13.6196 17.9676 13.6128 18.0385 13.7108 18.2306C13.7506 18.3086 13.7972 18.4955 13.8145 18.6459L13.8458 18.9193L14.1091 18.7937L14.3724 18.6682L14.1951 18.271C14.0092 17.8548 13.9469 17.8047 13.7421 17.9066ZM6.48193 18.0416C6.20031 18.1199 6.04152 18.4031 6.12884 18.6715C6.30555 19.2144 7.09601 19.0894 7.09523 18.5187C7.09509 18.4124 6.9476 18.0841 6.89995 18.0841C6.89309 18.0841 6.8254 18.0664 6.74951 18.0449C6.67366 18.0233 6.55326 18.0218 6.48193 18.0416ZM12.8746 18.788C12.9705 19.2009 13.04 19.5477 13.0293 19.5586C13.0185 19.5695 12.9453 19.5915 12.8666 19.6075L12.7235 19.6365L12.6679 19.3498C12.6373 19.1921 12.5984 19.0544 12.5815 19.0438C12.5579 19.029 11.9916 19.1497 11.9477 19.1789C11.9427 19.1821 11.9714 19.3164 12.0113 19.4772C12.0513 19.638 12.0745 19.7792 12.063 19.7908C12.0515 19.8026 11.9784 19.825 11.9007 19.8408L11.7593 19.8695L11.593 19.1673C11.4097 18.3933 11.4001 18.318 11.4843 18.3171C11.516 18.3168 11.5859 18.3045 11.6396 18.2899C11.7284 18.2657 11.7427 18.2919 11.7952 18.5736C11.8309 18.7658 11.8727 18.8764 11.9047 18.8639C11.9333 18.8528 12.0779 18.8162 12.2262 18.7825L12.4959 18.7213L12.4681 18.5663C12.3729 18.0336 12.3561 18.0818 12.651 18.0437C12.6782 18.0402 12.7786 18.3744 12.8746 18.788ZM8.23952 18.3117C8.27321 18.3535 8.34933 18.4825 8.40863 18.5981C8.62077 19.0118 8.60086 19.0083 8.94598 18.6923C9.24383 18.4196 9.35557 18.3697 9.48408 18.4523C9.53509 18.4851 9.52887 18.6007 9.44842 19.1175C9.29853 20.0801 9.32078 20.0144 9.15605 19.981C9.07809 19.9652 9.00671 19.9445 8.99736 19.935C8.98796 19.9256 9.01289 19.7125 9.0527 19.4616C9.09251 19.2107 9.11891 18.9992 9.11136 18.9915C9.1038 18.9838 8.97631 19.0855 8.82807 19.2173C8.52161 19.49 8.53483 19.4942 8.31117 19.052C8.24892 18.929 8.18073 18.8392 8.15962 18.8524C8.13852 18.8656 8.09511 19.0766 8.06318 19.3214L8.00512 19.7664H7.85745C7.77621 19.7664 7.69935 19.7558 7.68659 19.7428C7.66503 19.7209 7.85943 18.366 7.90301 18.2348C7.92891 18.1568 8.15677 18.2088 8.23952 18.3117ZM11.1042 18.5449C11.1042 18.6713 11.0909 18.6802 10.8623 18.708C10.7292 18.7242 10.5413 18.7377 10.4447 18.7379C10.275 18.7383 10.2694 18.7434 10.2834 18.887L10.2978 19.0357L10.6029 19.0242C10.9042 19.0128 10.9083 19.0143 10.9329 19.1442C10.9466 19.2165 10.9485 19.2853 10.937 19.297C10.9257 19.3086 10.7824 19.3269 10.6186 19.3375L10.3209 19.3567V19.5177V19.6787L10.7231 19.6689L11.1254 19.6591L11.1538 19.8002L11.1823 19.9414L10.9061 19.9707C10.7542 19.9868 10.4909 20 10.321 20H10.0121L9.98218 19.5722C9.93422 18.8872 9.94444 18.4689 10.0098 18.4421C10.0415 18.4292 10.3007 18.4169 10.5858 18.4149L11.1042 18.4112V18.5449Z" fill="#0075FF"/>
</svg>
