<svg viewBox="0 0 16 16" xmlns="http://www.w3.org/2000/svg">
  <g clip-path="url(#clip0_17731_7846)" fill="#9aa1b1">
    <path fill-rule="evenodd" clip-rule="evenodd" d="M7.1803 0.00254185C7.40755 -0.0203126 7.59868 0.162677 7.59868 0.391068V1.54149C7.59868 1.75929 7.78268 1.93058 8.00047 1.93058C8.21828 1.93057 8.40293 1.7593 8.40293 1.54149V0.391068C8.40293 0.162677 8.59407 -0.0203127 8.82131 0.00254185C10.3812 0.159419 11.8607 0.77221 13.0746 1.76419C13.2515 1.90871 13.2573 2.17327 13.0958 2.33477L12.8215 2.60902L12.2825 3.15059C12.1294 3.3044 12.1388 3.55481 12.2923 3.70826C12.4461 3.86204 12.697 3.87152 12.8512 3.71811L13.3921 3.17973L13.6663 2.90548C13.8278 2.74398 14.0924 2.74974 14.2369 2.9266C15.2289 4.14056 15.8417 5.62009 15.9986 7.17993C16.0214 7.40718 15.8384 7.59831 15.61 7.59831H14.4588C14.2412 7.59831 14.07 7.78282 14.07 8.00047C14.07 8.21814 14.2412 8.40203 14.4588 8.40203H15.6095C15.8381 8.40203 16.0212 8.59347 15.998 8.82088C15.8395 10.3799 15.2271 11.8585 14.2369 13.073C14.0924 13.2502 13.8276 13.2561 13.666 13.0945L13.3921 12.8206L12.8508 12.2818C12.6967 12.1285 12.4462 12.1378 12.2925 12.2915C12.1389 12.4451 12.1292 12.6961 12.2825 12.8501L12.8215 13.3917L13.0958 13.666C13.2573 13.8275 13.2515 14.092 13.0746 14.2365C11.8607 15.2285 10.3812 15.8413 8.82131 15.9982C8.59407 16.021 8.40293 15.8381 8.40293 15.6097V14.4587C8.40293 14.2407 8.21851 14.0694 8.00059 14.0694C7.7829 14.0694 7.59868 14.2406 7.59868 14.4583V15.6097C7.59868 15.8381 7.40755 16.021 7.1803 15.9982C5.62046 15.8413 4.14093 15.2285 2.92697 14.2365C2.75011 14.092 2.74434 13.8275 2.90585 13.666L3.1801 13.3917L3.71871 12.8506C3.87213 12.6964 3.86265 12.4455 3.70887 12.2917C3.55515 12.138 3.30428 12.1285 3.15019 12.2819L2.6089 12.8206L2.33465 13.0949C2.17314 13.2564 1.90859 13.2506 1.76407 13.0737C0.772088 11.8598 0.159297 10.3802 0.00241981 8.8204C-0.0204347 8.59316 0.162555 8.40203 0.390946 8.40203H1.54216C1.75993 8.40203 1.93119 8.21774 1.93119 7.99998C1.93119 7.78242 1.76009 7.59831 1.54253 7.59831H0.390946C0.162555 7.59831 -0.0204347 7.40718 0.00241978 7.17993C0.159297 5.62009 0.772087 4.14056 1.76407 2.9266C1.90859 2.74974 2.17314 2.74398 2.33465 2.90548L2.6089 3.17973L3.15005 3.71834C3.30411 3.87168 3.55517 3.86197 3.70887 3.70827C3.86256 3.55458 3.8718 3.30398 3.71847 3.14993L3.1801 2.60902L2.90585 2.33477C2.74434 2.17327 2.75011 1.90871 2.92697 1.76419C4.14093 0.77221 5.62046 0.159419 7.1803 0.00254185ZM6.29792 10.8353C5.19377 10.8353 4.29867 9.91048 4.29867 8.76959C4.29867 6.88004 7.07105 4.86347 7.86618 4.32396C7.99474 4.23673 8.15844 4.23841 8.28522 4.3282C9.0559 4.87395 11.7019 6.88495 11.7019 8.76959C11.7019 9.91048 10.8071 10.8353 9.7029 10.8353C9.05116 10.8353 8.55049 10.5245 8.18581 10.0256L8.07697 9.85233L7.96805 10.0257C7.60338 10.5245 6.94963 10.8353 6.29792 10.8353ZM8.04422 10.594C8.0621 10.5757 8.09149 10.5757 8.10938 10.594L9.15765 11.6642C9.18591 11.6931 9.16547 11.7417 9.12507 11.7417H7.02853C6.98813 11.7417 6.96769 11.6931 6.99595 11.6642L8.04422 10.594Z"/>
  </g>
  <defs>
    <clipPath id="clip0_17731_7846">
      <rect width="16" height="16"/>
    </clipPath>
  </defs>
</svg>

