<svg width="50" height="20" viewBox="0 0 50 20" fill="none" xmlns="http://www.w3.org/2000/svg">
<path d="M7.54079 7.2454C7.41623 7.30914 7.09421 7.52832 6.82509 7.73246C5.7462 8.55098 5.06441 9.56929 5.06433 10.3624C5.06416 11.3631 6.08856 12.0752 7.0238 11.7245C7.38615 11.5887 7.4149 11.7104 7.14037 12.2182C6.99731 12.4829 6.90499 12.739 6.93532 12.7873C6.99481 12.8823 8.49712 12.9134 8.59018 12.8216C8.62009 12.7921 8.53261 12.575 8.3958 12.3393C8.1086 11.8442 8.06894 11.5929 8.29282 11.686C8.37306 11.7193 8.62609 11.7632 8.85522 11.7834C9.69923 11.8581 10.3967 11.2032 10.3965 10.3362C10.3964 9.57661 9.75722 8.61711 8.70683 7.79957C7.8519 7.13417 7.80333 7.11109 7.54079 7.2454Z" fill="#56BB8A"/>
<path fill-rule="evenodd" clip-rule="evenodd" d="M5.89743 3.01607C5.04783 3.24075 3.91312 3.74694 3.5721 4.05344C3.55336 4.07028 3.75015 4.30342 4.00952 4.57147C4.26881 4.8396 4.48102 5.07832 4.48102 5.10207C4.48102 5.15842 2.81991 6.79621 2.76275 6.79621C2.73867 6.79621 2.49613 6.58665 2.22385 6.33059C1.74935 5.88436 1.72353 5.87155 1.60388 6.02254C1.3406 6.35483 0.80811 7.533 0.657471 8.11667L0.5 8.7267L1.93982 8.80885V11.1912L0.501833 11.2733L0.647056 11.8073C0.874931 12.6449 1.38834 13.7637 1.6992 14.0999C1.71628 14.1184 1.95273 13.9244 2.2246 13.6687C2.49655 13.413 2.74051 13.2038 2.76683 13.2038C2.82932 13.2038 4.48102 14.8323 4.48102 14.8939C4.48102 14.9199 4.26848 15.1608 4.00877 15.4293C3.55619 15.8971 3.54319 15.9226 3.69633 16.0405C4.03452 16.301 5.21763 16.815 5.83186 16.9682L6.4744 17.1286L6.52231 15.7093H8.93854L8.98644 17.1289L9.54567 16.9839C10.2781 16.7941 10.9233 16.5361 11.4381 16.2272C11.6672 16.0897 11.87 15.9634 11.8887 15.9466C11.9075 15.9297 11.7107 15.6966 11.4513 15.4285C11.192 15.1604 10.9798 14.9181 10.9798 14.8899C10.9798 14.8231 12.6222 13.2038 12.6899 13.2038C12.7185 13.2038 12.9647 13.4134 13.237 13.6694C13.7099 14.1142 13.7376 14.128 13.8535 13.9775C14.0969 13.6614 14.6352 12.4925 14.7638 12.0008C14.7714 11.9716 14.7788 11.9435 14.7859 11.9164C14.8763 11.5727 14.9208 11.4037 14.8545 11.3176C14.7903 11.2344 14.6225 11.2288 14.2922 11.2178C14.2654 11.2169 14.2374 11.216 14.2084 11.215L13.521 11.1912V8.80885L14.959 8.7267L14.8138 8.19274C14.5859 7.35507 14.0725 6.23629 13.7617 5.90005C13.7446 5.88157 13.5081 6.07561 13.2362 6.33133C12.9643 6.58698 12.7203 6.79621 12.694 6.79621C12.6315 6.79621 10.9798 5.1677 10.9798 5.10609C10.9798 5.08013 11.1924 4.83919 11.4521 4.57073C11.9047 4.10289 11.9177 4.07743 11.7645 3.95946C11.4275 3.69987 10.2325 3.17486 9.64057 3.02634L9.02185 2.87108L8.93854 4.29068H6.52231L6.43899 2.87288L5.89743 3.01607ZM5.60981 4.03874C5.8666 4.42508 5.38869 4.81594 5.05808 4.48998C4.86153 4.29619 4.85653 4.18414 5.0355 3.98912C5.22588 3.78169 5.45193 3.80116 5.60981 4.03874ZM10.4423 4.03874C10.6263 4.31566 10.4824 4.5782 10.1466 4.5782C9.81088 4.5782 9.66699 4.31566 9.85104 4.03874C9.9241 3.92882 10.0571 3.83887 10.1466 3.83887C10.2362 3.83887 10.3692 3.92882 10.4423 4.03874ZM8.40755 5.31754H7.06388V5.08481C7.06388 4.95674 7.09037 4.82588 7.1227 4.79401C7.15511 4.76214 7.44564 4.74669 7.76842 4.75975L8.35531 4.78357L8.40755 5.31754ZM10.7573 5.6845C10.8865 5.77987 10.8943 5.82612 10.8085 5.98853C10.7529 6.09392 10.6981 6.19111 10.6869 6.2045C10.6599 6.23678 9.56342 5.64161 9.56342 5.59463C9.56342 5.57458 9.62399 5.46713 9.69798 5.35574L9.83254 5.15324L10.2187 5.36264C10.4311 5.47781 10.6735 5.62272 10.7573 5.6845ZM5.78145 5.37915C5.84235 5.45818 5.89334 5.54723 5.89476 5.57696C5.89626 5.6067 5.64964 5.76533 5.34669 5.92955C4.82712 6.21107 4.78963 6.21961 4.68282 6.08078C4.50252 5.84641 4.53826 5.78143 5.00159 5.50048C5.50158 5.19736 5.62648 5.17789 5.78145 5.37915ZM9.11625 5.97818C10.3827 6.40707 11.4208 7.4617 11.8623 8.76777C12.0816 9.41675 12.0621 10.6919 11.8228 11.3488C11.3625 12.6122 10.2814 13.6536 9.02185 14.0466C8.23691 14.2916 7.07621 14.2852 6.35568 14.032C5.10799 13.5934 4.08818 12.5864 3.63851 11.3488C3.39697 10.6839 3.37606 9.40976 3.59627 8.76777C4.25614 6.84419 6.01507 5.64515 7.99146 5.7719C8.34123 5.79433 8.84739 5.88716 9.11625 5.97818ZM3.7554 6.99517C3.89621 7.10049 3.88763 7.13737 3.60276 7.64834L3.30082 8.18994L3.05636 8.06532C2.78416 7.92649 2.78533 7.9205 3.22042 7.22766C3.45613 6.85232 3.52453 6.82258 3.7554 6.99517ZM12.2314 7.22248C12.57 7.68333 12.6254 7.92312 12.4271 8.07107C12.3414 8.13515 12.2466 8.18871 12.2164 8.1901C12.1863 8.19158 12.0236 7.94514 11.8548 7.6425C11.5669 7.12612 11.5572 7.08579 11.6964 6.98532C11.9149 6.82784 11.9543 6.84534 12.2314 7.22248ZM2.0703 7.29198C2.3065 7.41668 2.28909 7.84738 2.04397 7.94112C1.65512 8.0898 1.33676 7.66518 1.61213 7.36517C1.77827 7.18412 1.84559 7.17344 2.0703 7.29198ZM13.8269 7.34291C14.0373 7.53062 14.0175 7.75349 13.7766 7.90916C13.3847 8.16234 12.9883 7.69114 13.3189 7.36517C13.5154 7.17138 13.6291 7.16645 13.8269 7.34291ZM2.98129 10.6676L2.43973 10.6161L2.41465 10.0908C2.38282 9.42677 2.41815 9.34281 2.72876 9.34281H2.98129V10.6676ZM13.0211 10.6161L12.4796 10.6676V9.33238L13.0211 9.38389V10.6161ZM3.60201 12.3503C3.88754 12.8625 3.89621 12.8995 3.7554 13.0048C3.67333 13.0662 3.56727 13.1176 3.51961 13.119C3.41855 13.1221 2.89798 12.303 2.89798 12.141C2.89798 12.0358 3.12868 11.8154 3.24441 11.8099C3.27457 11.8084 3.43546 12.0516 3.60201 12.3503ZM12.4171 11.9216C12.6184 12.0723 12.6028 12.1676 12.2934 12.6775C12.0085 13.1473 11.944 13.1832 11.7054 13.0048C11.5646 12.8995 11.5733 12.8625 11.8588 12.3503C12.0254 12.0516 12.1863 11.8084 12.2164 11.8099C12.2466 11.8113 12.3368 11.8616 12.4171 11.9216ZM2.08479 12.0742C2.31967 12.2528 2.3065 12.5834 2.05921 12.7139C1.92524 12.7845 1.84192 12.7756 1.68428 12.6738C1.44783 12.5211 1.42575 12.3329 1.61946 12.1218C1.78143 11.9454 1.89924 11.9333 2.08479 12.0742ZM13.7941 12.0995C14.0368 12.2671 14.0294 12.5105 13.7766 12.6738C13.3847 12.927 12.9883 12.4557 13.3189 12.1298C13.513 11.9384 13.5569 11.9356 13.7941 12.0995ZM5.34878 14.0716C5.86168 14.3496 5.88435 14.3745 5.79653 14.5645C5.74562 14.6746 5.64856 14.7646 5.58082 14.7646C5.48234 14.7646 4.71781 14.3527 4.57117 14.2207C4.53709 14.1901 4.73506 13.7788 4.78388 13.7788C4.79746 13.7788 5.05166 13.9106 5.34878 14.0716ZM10.8131 13.984C10.8744 14.097 10.9088 14.2036 10.8897 14.2211C10.7331 14.364 10.0038 14.7646 9.90044 14.7646C9.7613 14.7646 9.5201 14.4514 9.59917 14.3734C9.66315 14.3103 10.5924 13.7909 10.6533 13.7842C10.68 13.7812 10.7519 13.8712 10.8131 13.984ZM8.35531 15.2164H7.10554L7.0533 14.6825H8.40755L8.35531 15.2164ZM5.66955 15.6604C5.72371 15.8647 5.51825 16.1611 5.32237 16.1611C5.09491 16.1611 4.87253 15.8755 4.9391 15.6688C5.05283 15.3155 5.57649 15.3094 5.66955 15.6604ZM10.3966 15.5039C10.4883 15.5943 10.5632 15.697 10.5632 15.7321C10.5632 15.8813 10.2915 16.1611 10.1466 16.1611C10.0018 16.1611 9.73006 15.8813 9.73006 15.7321C9.73006 15.6397 10.0485 15.3396 10.1466 15.3396C10.1925 15.3396 10.305 15.4136 10.3966 15.5039Z" fill="#56BB8A"/>
<path d="M17.3688 6.49981C17.3688 5.59159 17.7245 5.03383 18.5494 4.64825C19.2429 4.32412 20.269 4.43493 20.8386 4.89543L21.0751 5.08665L20.5747 5.58344L20.3314 5.38023C19.8313 4.96259 18.9615 5.03422 18.4732 5.53328C18.1674 5.8459 18.0749 6.16886 18.1363 6.70961C18.1824 7.11564 18.3655 7.39809 18.754 7.66259C19.1205 7.91196 19.9214 7.8828 20.3134 7.60569L20.5738 7.4216L21.0463 7.87105L20.8077 8.08265C20.5396 8.32042 19.8927 8.53743 19.452 8.53743C18.7083 8.53743 17.8825 8.05091 17.542 7.41227C17.4082 7.16149 17.3688 6.95381 17.3688 6.49981Z" fill="white"/>
<path d="M25.9309 5.66244C25.9309 5.09473 26.218 4.71816 26.7925 4.53258C27.1317 4.42294 28.2272 4.50084 28.549 4.6575C28.8181 4.78846 28.8322 4.81236 28.7511 5.00249C28.6143 5.32317 28.5852 5.33454 28.2247 5.2082C27.3761 4.91103 26.5069 5.18171 26.6828 5.68837C26.7493 5.88007 26.845 5.93806 27.3522 6.09402C27.6777 6.19409 28.103 6.33602 28.2974 6.40938C29.2116 6.75428 29.2461 7.85451 28.3573 8.31791C27.8742 8.56972 26.8495 8.56525 26.2664 8.30866C26.0385 8.20835 25.8519 8.10059 25.8519 8.06924C25.8519 7.95592 26.0264 7.51862 26.0716 7.51862C26.0971 7.51862 26.2671 7.59033 26.4495 7.67794C27.1265 8.00333 28.0309 7.95005 28.1937 7.57512C28.3608 7.19033 28.1174 6.99323 27.1975 6.76847C26.2595 6.53924 25.9309 6.25224 25.9309 5.66244Z" fill="white"/>
<path fill-rule="evenodd" clip-rule="evenodd" d="M36.237 6.49981C36.237 5.59159 36.5927 5.03383 37.4176 4.64825C38.4416 4.16957 39.8214 4.61894 40.2922 5.5843C40.5399 6.09237 40.5213 6.88955 40.249 7.43202C39.6584 8.60851 37.9106 8.8897 36.8632 7.97685C36.4042 7.57669 36.237 7.18249 36.237 6.49981ZM39.5961 7.09535C39.8759 6.48375 39.7006 5.77176 39.1718 5.37129C38.8593 5.13469 38.2859 5.04661 37.8736 5.17192C37.5266 5.2774 37.0769 5.75499 37.0147 6.08406C36.9389 6.48516 37.0249 7.03939 37.199 7.27285C37.2838 7.38649 37.4743 7.5618 37.6222 7.66259C37.8511 7.81831 37.9681 7.8415 38.4061 7.81776C39.0289 7.78398 39.378 7.57207 39.5961 7.09535Z" fill="white"/>
<path d="M41.1675 5.66244C41.1675 5.09473 41.4547 4.71816 42.0291 4.53258C42.3684 4.42294 43.4638 4.50084 43.7856 4.6575C44.0547 4.78846 44.0688 4.81236 43.9877 5.00249C43.851 5.32317 43.8219 5.33454 43.4613 5.2082C42.6923 4.93893 41.878 5.14167 41.878 5.60248C41.878 5.85248 42.0988 5.98414 42.8649 6.19096C43.6752 6.40977 43.9012 6.52826 44.0963 6.83673C44.4112 7.3343 44.1766 8.01368 43.583 8.3234C43.1113 8.56964 42.0794 8.56227 41.503 8.30866C41.0683 8.11736 41.0297 8.04613 41.1816 7.71517C41.2466 7.57356 41.312 7.52889 41.3987 7.56682C41.467 7.5966 41.7182 7.6897 41.957 7.77356C42.7053 8.03649 43.457 7.84981 43.457 7.40107C43.457 7.13429 43.2071 6.97081 42.5406 6.8013C41.4843 6.53265 41.1675 6.26988 41.1675 5.66244Z" fill="white"/>
<path fill-rule="evenodd" clip-rule="evenodd" d="M21.273 8.39863C21.273 8.33641 22.8765 4.76973 22.9772 4.60805C23.0003 4.57098 23.1869 4.54057 23.3919 4.54057H23.7646L24.6241 6.44104C25.0968 7.48625 25.4987 8.36987 25.5172 8.40459C25.5358 8.43938 25.3667 8.45702 25.1415 8.44377L24.7321 8.41987L24.3658 7.5578H22.3624L22.1883 7.98884C22.0147 8.41838 22.0129 8.41995 21.6436 8.44377C21.4398 8.45686 21.273 8.43656 21.273 8.39863ZM23.8283 6.32348C23.6739 5.96784 23.5162 5.59762 23.478 5.5006C23.4398 5.40358 23.389 5.32427 23.3651 5.32427C23.3413 5.32427 23.2904 5.40358 23.2522 5.5006C23.214 5.59762 23.0564 5.96784 22.9019 6.32348L22.6211 6.97003H24.1091L23.8283 6.32348Z" fill="white"/>
<path d="M29.8782 8.45905V4.54057H30.5887V8.45905H29.8782Z" fill="white"/>
<path d="M31.7729 8.45905V4.54057L32.444 4.54943L34.4966 7.07795L34.54 4.54057H35.3255V8.46807L34.9924 8.44393C34.6673 8.42042 34.6371 8.39268 33.7271 7.28351C32.9812 6.37441 32.6777 5.95744 32.5565 6.00438C32.4518 6.04496 32.4834 6.43244 32.4834 7.14856V8.45905H31.7729Z" fill="white"/>
<path fill-rule="evenodd" clip-rule="evenodd" d="M18.1659 13.73C18.6042 12.7669 18.9948 11.8977 19.0339 11.7985C19.0969 11.6383 19.1495 11.6207 19.5033 11.6418L19.9017 11.6655L20.7668 13.5705C21.2426 14.6183 21.6319 15.4911 21.6319 15.5101C21.6319 15.5292 21.4601 15.5448 21.2502 15.5448H20.8683L20.4596 14.6043H18.4978L18.1216 15.5448H17.7452C17.5382 15.5448 17.3688 15.5304 17.3688 15.5129C17.3688 15.4954 17.7275 14.693 18.1659 13.73ZM20.2109 14.03C20.2109 14.0159 20.0662 13.6721 19.8894 13.2659C19.7125 12.8598 19.5422 12.5014 19.511 12.4693C19.4651 12.4223 19.0648 13.2664 18.8237 13.9186C18.7777 14.0429 18.8406 14.0557 19.4919 14.0557C19.8874 14.0557 20.2109 14.0442 20.2109 14.03Z" fill="white"/>
<path d="M22.2635 15.5448V11.6263L22.9346 11.6306L25.0661 14.2442L25.1094 11.6263H25.8161V15.5448H25.5042C25.196 15.5448 25.1793 15.5289 24.1423 14.2553C23.5649 13.546 23.0658 12.9641 23.0332 12.9622C23.0006 12.9602 22.974 13.5405 22.974 14.2517V15.5448H22.2635Z" fill="white"/>
<path fill-rule="evenodd" clip-rule="evenodd" d="M27.2833 13.6568C27.7429 12.6478 28.1381 11.7764 28.1616 11.7205C28.1905 11.6516 28.3312 11.6263 28.5971 11.6421L28.9898 11.6655L29.8469 13.5463C30.3182 14.5808 30.7055 15.4536 30.7074 15.486C30.7093 15.5183 30.5415 15.5448 30.3347 15.5448H29.9586L29.5399 14.6043H28.5956C27.9793 14.6043 27.738 14.599 27.5954 14.7142C27.4961 14.7944 27.4447 14.9329 27.348 15.1722C27.1983 15.5426 27.1962 15.5442 26.8227 15.5444C26.6164 15.5446 26.4477 15.5328 26.4477 15.5181C26.4477 15.5035 26.8237 14.6659 27.2833 13.6568ZM29.2683 13.9578C29.2472 13.9039 29.0924 13.534 28.9243 13.1357C28.7562 12.7374 28.5995 12.4112 28.5761 12.4108C28.5404 12.4101 28.0749 13.4522 27.9025 13.9186C27.8565 14.043 27.9198 14.0557 28.5792 14.0557C29.129 14.0557 29.2972 14.0318 29.2683 13.9578Z" fill="white"/>
<path d="M31.3423 15.5448V11.6263H32.1318V14.9178H34.1844V15.5448H31.3423Z" fill="white"/>
<path d="M34.6975 12.9586C34.2851 12.2775 33.9476 11.6992 33.9476 11.6733C33.9476 11.6474 34.1172 11.6263 34.3245 11.6263H34.7014L35.2417 12.5275C35.5388 13.0232 35.8044 13.4285 35.8319 13.4283C35.8592 13.4281 36.1303 13.0225 36.434 12.5271L36.9861 11.6263H37.7214L36.1581 14.1919V15.5448H35.4475V14.1969L34.6975 12.9586Z" fill="white"/>
<path d="M38.0922 12.214L38.0432 11.6263H41.3685V11.855C41.3685 12.0336 41.1153 12.3908 40.2161 13.4812L39.0636 14.8786L41.4475 14.9219V15.5448H38.0528V15.2759C38.0528 15.0458 38.2124 14.8145 39.158 13.6749C39.7659 12.9423 40.2633 12.3237 40.2633 12.3003C40.2633 12.2768 39.7748 12.2478 39.1778 12.2358L38.0922 12.214Z" fill="white"/>
<path d="M42.2369 15.5448V11.6263H45.1675L45.1185 12.214L42.9474 12.2576V13.1937H44.8422V13.8206H42.9474V14.9178H45.2369V15.5448H42.2369Z" fill="white"/>
<path fill-rule="evenodd" clip-rule="evenodd" d="M46.1053 15.5448V11.6263L47.2303 11.628C48.4782 11.6299 48.8455 11.7261 49.1704 12.1361C49.6618 12.7563 49.5152 13.7321 48.8724 14.1202L48.638 14.2618L49.069 14.8656C49.306 15.1977 49.5 15.4865 49.5 15.5071C49.5 15.5278 49.3235 15.5448 49.1076 15.5448H48.7153L47.9163 14.3692H46.8948V15.5448H46.1053ZM48.7105 12.9873C48.7105 12.7869 48.6474 12.6488 48.4798 12.4823C48.2606 12.2648 48.215 12.2532 47.5719 12.2532H46.8948V13.8206L47.3092 13.8187C48.2397 13.8146 48.7105 13.5352 48.7105 12.9873Z" fill="white"/>
</svg>
