<svg width="22" height="20" viewBox="0 0 22 20" fill="none" xmlns="http://www.w3.org/2000/svg">
<path d="M0.928748 8.96112C0.869704 8.58373 1.02242 8.17938 1.25416 7.77856C1.69454 7.01626 2.10075 6.23408 2.5296 5.46515C2.60773 5.32507 2.62815 5.20133 2.5771 5.0502C2.52826 4.90481 2.51894 4.74572 2.46478 4.60298C2.40085 4.43417 2.46878 4.3754 2.6175 4.31485C5.10977 3.2989 7.60028 2.27852 10.0899 1.25682C10.3753 1.13971 10.655 0.912569 10.9378 0.912127C11.2202 0.911685 11.5007 1.13706 11.7862 1.25417L12.0923 1.37982C14.4732 2.35701 16.8543 3.33425 19.2386 4.30336C19.4219 4.3776 19.4863 4.4545 19.4069 4.63789C19.2155 5.07892 19.3172 5.46338 19.5645 5.86906C19.9844 6.55756 20.3396 7.28495 20.74 7.98538C20.8843 8.23771 20.9447 8.49402 20.9535 8.77861C21.0175 10.7959 20.3595 12.5472 19.0264 14.0621C17.4295 15.8766 15.466 17.1931 13.3089 18.2417C12.6292 18.5723 11.9234 18.8494 11.2228 19.1353C11.1083 19.1821 10.9511 19.1795 10.8286 19.1459C9.72142 18.8427 8.69947 18.3372 7.69572 17.7967C6.2174 17.0004 4.83897 16.0609 3.63634 14.8841C2.661 13.93 1.81441 12.8822 1.34916 11.5781C1.06371 10.7783 0.928304 9.91565 0.928748 8.96112Z" fill="#002833"/>
<path d="M3.56677 13.92C4.89852 15.1321 8.2873 17.7577 11.1884 18.5628C11.0414 18.2726 10.7182 17.5928 10.6014 17.1949C9.32904 16.9706 6.14083 16.0017 3.56677 13.92Z" fill="#346C7F"/>
<path d="M14.2948 13.4767C14.3314 13.649 14.3602 13.7825 14.3889 13.9164C14.4718 13.9984 14.5548 14.08 14.6377 14.1621C15.069 13.7803 17.9989 11.215 18.435 10.8389C18.5097 10.3674 18.5844 9.87725 18.6591 9.40573C17.6082 10.3969 16.3908 11.4863 15.3425 12.4802C14.9824 12.8218 14.6231 13.1642 14.2948 13.4767Z" fill="#F4B372"/>
<path d="M14.6381 14.1624C14.905 13.9158 15.1675 13.6648 15.4398 13.4244C15.8711 13.043 16.3072 12.6669 16.7434 12.2909C17.3064 11.8056 17.8716 11.3231 18.4355 10.8392C18.6312 10.8259 18.827 10.8025 19.0228 10.8025C19.2817 10.8025 19.5407 10.8202 19.7997 10.8303C18.7948 11.6492 17.7903 12.4685 16.7849 13.2874C16.3479 13.6436 15.7533 14.143 15.3185 14.5018C15.2809 14.4731 14.8684 14.4306 14.8197 14.416C14.7592 14.3316 14.6991 14.2468 14.6381 14.1624Z" fill="#E1A160"/>
<path d="M14.6381 14.1624C14.6987 14.2468 14.7592 14.3316 14.8202 14.4161C14.5387 14.6463 14.2519 14.8703 13.9762 15.1072C13.3942 15.6083 12.8148 16.113 12.2421 16.6247C12.1135 16.7396 12.0039 16.881 11.9067 17.0247C11.7414 17.2699 11.6703 17.2836 11.4586 17.0719C11.1488 16.7626 11.1665 16.7502 11.5549 16.5196C11.7962 16.3764 12.0017 16.1682 12.2116 15.9764C12.9154 15.3445 14.3362 14.0477 14.3893 13.9162L14.6381 14.1624Z" fill="#360001"/>
<path d="M18.6542 9.40574C18.6169 9.64397 18.5787 9.88626 18.5405 10.1285L18.4269 10.8513L19.7915 10.842C19.5471 10.2842 19.1955 9.69376 18.6542 9.40574Z" fill="#CD9153"/>
<path d="M16.5741 8.32386V6.51382H15.8385V6.03822H17.847V6.51382H17.1113V8.32386H16.5741Z" fill="white"/>
<path d="M13.7726 8.32385V6.03822H15.5313V6.51382H14.3132V6.91073H15.0557V7.38633H14.3132V7.84825H15.5313V8.32385H13.7726Z" fill="white"/>
<path d="M11.5172 8.32385V6.03822H12.0578V6.94494L12.8824 6.03822H13.5428L12.6395 7.0168L13.5873 8.32385H12.9611L12.2905 7.39318L12.0578 7.6498V8.32385H11.5172Z" fill="white"/>
<path d="M10.327 8.36492C10.0897 8.36492 9.88558 8.31702 9.7145 8.22121C9.54342 8.12541 9.41226 7.98854 9.32101 7.81062C9.22977 7.6327 9.18415 7.42284 9.18415 7.18104C9.18415 6.93925 9.23091 6.73053 9.32444 6.55489C9.42024 6.37696 9.55483 6.2401 9.72819 6.14429C9.90155 6.04621 10.1057 5.99716 10.3407 5.99716C10.5574 5.99716 10.7455 6.04507 10.9052 6.14087C11.0672 6.23668 11.1915 6.36556 11.2782 6.52751L10.7992 6.70202C10.749 6.60849 10.6805 6.54234 10.5939 6.50356C10.5072 6.4625 10.4171 6.44197 10.3235 6.44197C10.2186 6.44197 10.1228 6.47163 10.0361 6.53094C9.94945 6.58796 9.88102 6.67236 9.83084 6.78414C9.78065 6.89363 9.75556 7.02593 9.75556 7.18104C9.75556 7.42056 9.81031 7.60418 9.9198 7.73192C10.0316 7.85738 10.1684 7.92011 10.3304 7.92011C10.4171 7.92011 10.506 7.90186 10.5973 7.86537C10.6908 7.82887 10.7638 7.76158 10.8163 7.66349L11.2919 7.83799C11.2006 7.99995 11.0706 8.12883 10.9018 8.22464C10.7353 8.31816 10.5437 8.36492 10.327 8.36492Z" fill="white"/>
<path d="M8.22935 8.32387L8.22935 6.03822H8.76997V8.32386L8.22935 8.32387Z" fill="white"/>
<path d="M5.89981 8.32387V6.03823H6.77916C6.97762 6.03823 7.1544 6.05762 7.30951 6.0964C7.46691 6.13517 7.59008 6.20589 7.67905 6.30854C7.77029 6.41118 7.81591 6.55717 7.81591 6.7465C7.81591 6.83318 7.79994 6.91986 7.76801 7.00655C7.73607 7.09095 7.68019 7.1685 7.60035 7.23922C7.52279 7.30993 7.41102 7.36467 7.26503 7.40345L7.92882 8.32387H7.30267L6.68336 7.46162H6.44042V8.32387H5.89981ZM6.44042 7.00997H6.79627C6.92401 7.00997 7.03008 6.994 7.11448 6.96206C7.20116 6.92785 7.2445 6.85828 7.2445 6.75335C7.2445 6.64614 7.20116 6.57656 7.11448 6.54463C7.03008 6.51041 6.92401 6.4933 6.79627 6.4933H6.44042V7.00997Z" fill="white"/>
<path d="M4.70959 8.36492C4.47236 8.36492 4.2682 8.31702 4.09712 8.22122C3.92604 8.12541 3.79488 7.98855 3.70364 7.81062C3.61239 7.6327 3.56677 7.42284 3.56677 7.18104C3.56677 6.93925 3.61353 6.73053 3.70706 6.55489C3.80286 6.37697 3.93745 6.2401 4.11081 6.1443C4.28417 6.04621 4.48833 5.99717 4.72328 5.99717C4.93998 5.99717 5.12817 6.04507 5.28784 6.14087C5.4498 6.23668 5.57412 6.36556 5.6608 6.52752L5.18177 6.70202C5.13159 6.60849 5.06316 6.54234 4.97648 6.50357C4.8898 6.46251 4.79969 6.44198 4.70617 6.44198C4.60124 6.44198 4.50544 6.47163 4.41875 6.53094C4.33207 6.58796 4.26364 6.67236 4.21346 6.78414C4.16327 6.89363 4.13818 7.02593 4.13818 7.18104C4.13818 7.42056 4.19293 7.60418 4.30242 7.73193C4.41419 7.85738 4.55106 7.92011 4.71301 7.92011C4.79969 7.92011 4.88866 7.90187 4.9799 7.86537C5.07342 7.82887 5.14642 7.76158 5.19888 7.66349L5.67449 7.83799C5.58324 7.99995 5.45322 8.12883 5.28442 8.22464C5.1179 8.31816 4.92629 8.36492 4.70959 8.36492Z" fill="white"/>
<path d="M13.6017 10.5027C13.3806 10.5027 13.2563 10.3788 13.2563 10.172V9.58586H13.3769V10.1444C13.3769 10.3127 13.4619 10.4039 13.631 10.4039C13.8146 10.4039 13.9243 10.2926 13.9243 10.1217V9.58586H14.0449V10.4876H13.9243V10.3302H13.9133C13.8649 10.4391 13.7543 10.5027 13.6017 10.5027Z" fill="white"/>
<path d="M12.5664 10.4877V9.58589H12.687V9.73409H12.6989C12.7373 9.6311 12.8332 9.57082 12.9666 9.57082C13.0023 9.57082 13.0352 9.57417 13.0589 9.57919V9.68804C13.0233 9.67967 12.9913 9.67632 12.9538 9.67632C12.8003 9.67632 12.687 9.77931 12.687 9.925V10.4877H12.5664Z" fill="white"/>
<path d="M11.8143 10.5027C11.5932 10.5027 11.4689 10.3788 11.4689 10.172V9.58586H11.5895V10.1444C11.5895 10.3127 11.6745 10.4039 11.8435 10.4039C12.0272 10.4039 12.1369 10.2926 12.1369 10.1217V9.58586H12.2575V10.4876H12.1369V10.3302H12.1259C12.0775 10.4391 11.9669 10.5027 11.8143 10.5027Z" fill="white"/>
<path d="M10.8555 9.3799C10.9816 9.3799 11.0988 9.40563 11.2074 9.45707L11.1774 9.5874L11.1587 9.59083C11.0988 9.55653 11.0433 9.53195 10.9922 9.51709C10.9423 9.50223 10.8892 9.4948 10.8331 9.4948C10.5623 9.4948 10.427 9.64799 10.427 9.95437C10.427 10.1018 10.4582 10.2104 10.5205 10.2802C10.5842 10.3488 10.6821 10.3831 10.8144 10.3831C10.8493 10.3831 10.8842 10.3802 10.9192 10.3745C10.9554 10.3688 11.0015 10.3579 11.0577 10.3419L11.0614 10.2133L11.0595 10.0487L11.1999 10.0384L11.1962 10.1944L11.2036 10.4345C11.1225 10.4574 11.0508 10.474 10.9884 10.4842C10.926 10.4945 10.8655 10.4997 10.8069 10.4997C10.6285 10.4997 10.4943 10.4534 10.4045 10.3608C10.3159 10.2682 10.2716 10.1344 10.2716 9.95951C10.2716 9.77088 10.3222 9.62741 10.4232 9.52909C10.5243 9.42963 10.6684 9.3799 10.8555 9.3799Z" fill="white"/>
<path d="M9.14415 10.8025C8.91844 10.8025 8.76857 10.7104 8.74299 10.5706L8.7439 10.5697H8.86909L8.87001 10.5706C8.89194 10.6493 8.99429 10.7037 9.14415 10.7037C9.33422 10.7037 9.45211 10.6149 9.45211 10.4693V10.2675H9.44023C9.38174 10.3864 9.26112 10.455 9.11034 10.455C8.85721 10.455 8.69547 10.2733 8.69547 10.0146V10.0129C8.69547 9.75502 8.85813 9.57082 9.11217 9.57082C9.26386 9.57082 9.3854 9.64785 9.44205 9.76842H9.45028V9.58589H9.57182V10.4768C9.57182 10.6736 9.40276 10.8025 9.14415 10.8025ZM9.1341 10.3562C9.33148 10.3562 9.45393 10.2181 9.45393 10.0163V10.0146C9.45393 9.8128 9.32874 9.66962 9.1341 9.66962C8.93763 9.66962 8.81883 9.81112 8.81883 10.0129V10.0146C8.81883 10.2164 8.93763 10.3562 9.1341 10.3562Z" fill="white"/>
<path d="M7.65555 10.4877V9.58589H7.77617V9.74414H7.78805C7.84014 9.63529 7.94614 9.57082 8.09966 9.57082C8.31897 9.57082 8.44416 9.69139 8.44416 9.90155V10.4877H8.32354V9.92919C8.32354 9.75754 8.23856 9.66962 8.06767 9.66962C7.89405 9.66962 7.77617 9.78182 7.77617 9.95179V10.4877H7.65555Z" fill="white"/>
<path d="M7.2818 9.39837C7.23245 9.39837 7.19224 9.36237 7.19224 9.31715C7.19224 9.27194 7.23245 9.23594 7.2818 9.23594C7.33023 9.23594 7.37044 9.27194 7.37044 9.31715C7.37044 9.36237 7.33023 9.39837 7.2818 9.39837ZM7.22057 10.4877V9.58593H7.34119V10.4877H7.22057Z" fill="white"/>
<path d="M6.87882 10.4936C6.69057 10.4936 6.6129 10.4275 6.6129 10.2633V9.67889H6.45481V9.58595H6.6129V9.35151H6.73809V9.58595H6.96289V9.67889H6.73809V10.2382C6.73809 10.3487 6.78104 10.3948 6.89252 10.3948C6.91994 10.3948 6.93822 10.394 6.96289 10.3914V10.4869C6.93547 10.4911 6.90806 10.4936 6.87882 10.4936Z" fill="white"/>
<path d="M6.21721 10.4936C6.02897 10.4936 5.95129 10.4275 5.95129 10.2633V9.67889H5.7932V9.58595H5.95129V9.35151H6.07649V9.58595H6.30128V9.67889H6.07649V10.2382C6.07649 10.3487 6.11943 10.3948 6.23092 10.3948C6.25833 10.3948 6.27661 10.394 6.30128 10.3914V10.4869C6.27387 10.4911 6.24645 10.4936 6.21721 10.4936Z" fill="white"/>
<path d="M5.21567 10.5027C4.9397 10.5027 4.76973 10.3227 4.76973 10.0397V10.038C4.76973 9.7567 4.94153 9.57082 5.20562 9.57082C5.46971 9.57082 5.63237 9.75168 5.63237 10.0188V10.0657H4.8931C4.89675 10.2767 5.02286 10.4031 5.21841 10.4031C5.36188 10.4031 5.46057 10.3411 5.49256 10.2708L5.49621 10.2649H5.61775L5.61501 10.2716C5.57663 10.3939 5.43316 10.5027 5.21567 10.5027ZM5.20562 9.66962C5.03565 9.66962 4.90955 9.78014 4.89401 9.97524H5.50992C5.49621 9.77512 5.37468 9.66962 5.20562 9.66962Z" fill="white"/>
<path d="M3.62747 10.4876V9.2794H4.10083C4.3439 9.2794 4.49376 9.39662 4.49376 9.57748V9.57916C4.49376 9.71145 4.39233 9.82449 4.25252 9.84794V9.85798C4.43254 9.87892 4.56139 9.98944 4.56139 10.1561V10.1577C4.56139 10.362 4.40056 10.4876 4.10814 10.4876H3.62747ZM4.07615 9.38072H3.75266V9.81612H4.04783C4.2516 9.81612 4.36766 9.73657 4.36766 9.59674V9.59507C4.36766 9.46277 4.25892 9.38072 4.07615 9.38072ZM4.07981 9.91492H3.75266V10.3863H4.08986C4.31923 10.3863 4.43345 10.3009 4.43345 10.1519V10.1502C4.43345 9.99949 4.30369 9.91492 4.07981 9.91492Z" fill="white"/>
<circle cx="11.7886" cy="13.7338" r="1.08174" fill="#FF303D"/>
<path opacity="0.6" d="M10.7118 13.8379L12.5902 14.4603C12.5547 14.4994 12.5163 14.536 12.4755 14.5696L10.7384 13.994C10.7258 13.9432 10.7169 13.8911 10.7118 13.8379Z" fill="#F6989D"/>
<path opacity="0.6" d="M12.8621 13.8684C12.8676 13.8243 12.8704 13.7794 12.8704 13.7338C12.8704 13.7305 12.8704 13.7271 12.8703 13.7238L10.9269 13.0798C10.8977 13.1182 10.8711 13.1586 10.8472 13.2007L12.8621 13.8684Z" fill="#F6989D"/>
<circle cx="11.4616" cy="13.3278" r="0.447518" fill="url(#paint0_radial_0_32)"/>
<path d="M15.9528 3.49864C14.0582 2.76708 10.8881 2.21685 9.53992 2.03318C9.89163 1.85733 10.656 1.50795 10.8999 1.51733C11.1437 1.52671 14.3701 2.84211 15.9528 3.49864Z" fill="#346C7F"/>
<path fill-rule="evenodd" clip-rule="evenodd" d="M10.7496 0.210263L19.945 4.12589L19.8554 4.42542C19.7173 4.88691 19.6325 5.65191 20.2065 6.20059L20.2172 6.21077L20.2269 6.22182C20.5001 6.53096 20.7899 7.00982 21.0208 7.51946C21.2517 8.02911 21.4398 8.60461 21.4852 9.11265C21.6574 11.0383 20.4474 16.4153 11.3561 19.7519L11.2528 19.7897L11.1465 19.7617C6.57564 18.5585 3.83382 16.3167 2.27927 14.1606C1.50371 13.0849 1.02545 12.033 0.762859 11.1466C0.504287 10.2738 0.444268 9.52465 0.548691 9.06614L0.551085 9.05564L0.55412 9.0453C0.75038 8.37675 1.3457 6.97867 1.80847 6.26343C1.90303 6.11727 2.02773 5.83732 2.06365 5.51157C2.09886 5.19231 2.04783 4.84629 1.81891 4.5304L1.56286 4.17707L10.7496 0.210263ZM10.7516 0.97133L2.5995 4.49134C2.76596 4.86732 2.79617 5.25038 2.75891 5.58824C2.70996 6.03213 2.54366 6.41476 2.39574 6.64339C1.97858 7.28815 1.41296 8.61016 1.22852 9.23132C1.16561 9.52358 1.19193 10.1324 1.43352 10.9479C1.67384 11.7591 2.11725 12.7399 2.84665 13.7515C4.2903 15.7538 6.86146 17.8868 11.2184 19.0571C19.9748 15.8064 20.9269 10.7219 20.7885 9.17497C20.7527 8.77471 20.5972 8.27941 20.3837 7.80813C20.1731 7.34343 19.9217 6.93618 19.7117 6.69515C18.9954 6.00107 18.9982 5.11208 19.1104 4.53073L10.7516 0.97133Z" fill="#FDBE03"/>
<defs>
<radialGradient id="paint0_radial_0_32" cx="0" cy="0" r="1" gradientUnits="userSpaceOnUse" gradientTransform="translate(11.4616 13.3278) rotate(90) scale(0.447518)">
<stop stop-color="#FFD4D4"/>
<stop offset="1" stop-color="#DCDCDC" stop-opacity="0"/>
</radialGradient>
</defs>
</svg>
