<svg width="20" height="20" viewBox="0 0 20 20" fill="none" xmlns="http://www.w3.org/2000/svg">
<path d="M20 10C20 15.5228 15.5228 20 10 20C4.47715 20 0 15.5228 0 10C0 4.47715 4.47715 0 10 0C15.5228 0 20 4.47715 20 10Z" fill="white"/>
<path d="M16.129 10C16.129 13.385 13.385 16.129 10 16.129C6.61503 16.129 3.87097 13.385 3.87097 10C3.87097 6.61503 6.61503 3.87097 10 3.87097C13.385 3.87097 16.129 6.61503 16.129 10Z" fill="#D40E2C"/>
<path d="M14.5921 4.64959C14.1274 4.25039 13.6101 3.91071 13.0521 3.64231L13.8301 1.76677C14.634 2.14139 15.374 2.63031 16.029 3.21262L14.5921 4.64959Z" fill="#211D21"/>
<path d="M16.1972 6.6345C15.9191 6.1235 15.5796 5.65074 15.1887 5.22607L16.6234 3.79136C17.1945 4.40036 17.6826 5.08816 18.0696 5.83669L16.1972 6.6345Z" fill="#211D21"/>
<path d="M16.9642 8.89201C16.8815 8.36853 16.7413 7.86421 16.5501 7.38574L18.4164 6.59054C18.7 7.28979 18.8989 8.03241 19.0005 8.80565L16.9642 8.89201Z" fill="#211D21"/>
<path d="M16.9267 11.3233C17.0081 10.8947 17.0507 10.4523 17.0507 10C17.0507 9.90583 17.0488 9.81207 17.0452 9.7188L19.0711 9.63289C19.0759 9.75467 19.0783 9.87705 19.0783 10C19.0783 10.679 19.0038 11.3405 18.8625 11.977L16.9267 11.3233Z" fill="#211D21"/>
<path d="M15.9425 13.7962C16.2714 13.2824 16.5355 12.7232 16.7232 12.1301L18.6451 12.779C18.3708 13.6331 17.9734 14.432 17.4739 15.1549L15.9425 13.7962Z" fill="#211D21"/>
<path d="M14.1672 15.688C14.6451 15.3373 15.0771 14.9279 15.4526 14.4704L16.9702 15.817C16.424 16.4707 15.7876 17.0465 15.08 17.525L14.1672 15.688Z" fill="#211D21"/>
<path d="M10.7345 17.0129C11.7194 16.9109 12.6441 16.6063 13.4662 16.1413L14.3696 17.9595C13.3015 18.5471 12.1023 18.926 10.827 19.0412L10.7345 17.0129Z" fill="#211D21"/>
<path d="M7.65553 16.6515C8.36095 16.9002 9.11781 17.0398 9.90585 17.0501L9.99829 19.0783C8.90175 19.0781 7.85062 18.8835 6.87752 18.5271L7.65553 16.6515Z" fill="#211D21"/>
<path d="M5.22605 15.1887C5.7209 15.6442 6.2811 16.0298 6.89093 16.3299L6.11261 18.2063C5.2567 17.8001 4.47446 17.264 3.79136 16.6234L5.22605 15.1887Z" fill="#211D21"/>
<path d="M3.57746 12.9134C3.85517 13.5246 4.21754 14.0891 4.64961 14.5921L3.21262 16.0291C2.60108 15.3411 2.09254 14.5596 1.71123 13.7086L3.57746 12.9134Z" fill="#211D21"/>
<path d="M2.95628 10.3163C2.98423 10.949 3.09552 11.5601 3.2795 12.1387L1.40711 12.9365C1.13371 12.1363 0.968912 11.2856 0.93039 10.4023L2.95628 10.3163Z" fill="#211D21"/>
<path d="M3.36163 7.61849C3.14993 8.20844 3.01474 8.83479 2.96781 9.48562L0.93156 9.572C0.973727 8.66321 1.14955 7.78932 1.43978 6.96955L3.36163 7.61849Z" fill="#211D21"/>
<path d="M4.91296 5.11795C4.42257 5.62883 4.00836 6.21341 3.68866 6.85342L1.75291 6.1998C2.16756 5.30138 2.72474 4.48224 3.39542 3.77135L4.91296 5.11795Z" fill="#211D21"/>
<path d="M10.0932 2.94992C10.8593 2.95984 11.596 3.09195 12.2845 3.32765L13.0629 1.45132C12.1063 1.10853 11.0753 0.921749 10.0008 0.921659L10.0932 2.94992Z" fill="#211D21"/>
<path d="M9.17213 0.958899L9.26461 2.9872C8.82412 3.03286 8.39574 3.11904 7.98315 3.24199L7.07027 1.40479C7.73919 1.17685 8.44322 1.02478 9.17213 0.958899Z" fill="#211D21"/>
<path d="M6.29541 1.70946L7.1988 3.52769C6.59162 3.79082 6.02877 4.13689 5.52446 4.55161L3.99324 3.19286C4.67683 2.58917 5.45205 2.08687 6.29541 1.70946Z" fill="#211D21"/>
<path d="M16.1972 6.6345C15.9191 6.1235 15.5796 5.65074 15.1887 5.22607L16.6234 3.79136C17.1945 4.40036 17.6826 5.08816 18.0696 5.83669L16.1972 6.6345Z" fill="#D40E2C"/>
<path d="M16.9267 11.3233C17.0081 10.8947 17.0507 10.4523 17.0507 10C17.0507 9.90583 17.0488 9.81207 17.0452 9.7188L19.0711 9.63289C19.0759 9.75467 19.0783 9.87705 19.0783 10C19.0783 10.679 19.0038 11.3405 18.8625 11.977L16.9267 11.3233Z" fill="#D40E2C"/>
<path d="M14.1672 15.688C14.6451 15.3373 15.0771 14.9279 15.4526 14.4704L16.9702 15.817C16.424 16.4707 15.7876 17.0465 15.08 17.525L14.1672 15.688Z" fill="#D40E2C"/>
<path d="M7.65553 16.6515C8.36095 16.9002 9.11781 17.0398 9.90585 17.0501L9.99829 19.0783C8.90175 19.0781 7.85062 18.8835 6.87752 18.5271L7.65553 16.6515Z" fill="#D40E2C"/>
<path d="M3.57746 12.9134C3.85517 13.5246 4.21754 14.0891 4.64961 14.5921L3.21262 16.0291C2.60108 15.3411 2.09254 14.5596 1.71123 13.7086L3.57746 12.9134Z" fill="#D40E2C"/>
<path d="M3.36163 7.61849C3.14993 8.20844 3.01474 8.83479 2.96781 9.48562L0.93156 9.572C0.973727 8.66321 1.14955 7.78932 1.43978 6.96955L3.36163 7.61849Z" fill="#D40E2C"/>
<path d="M10.0932 2.94992C10.8593 2.95984 11.596 3.09195 12.2845 3.32765L13.0629 1.45132C12.1063 1.10853 11.0753 0.921749 10.0008 0.921659L10.0932 2.94992Z" fill="#D40E2C"/>
<path d="M6.29541 1.70946L7.1988 3.52769C6.59162 3.79082 6.02877 4.13689 5.52446 4.55161L3.99324 3.19286C4.67683 2.58917 5.45205 2.08687 6.29541 1.70946Z" fill="#D40E2C"/>
<path d="M11.1887 9.63926L9.21861 9.07042C8.9906 9.00562 8.8319 8.795 8.8319 8.56099C8.8319 8.26757 9.07268 8.02995 9.37002 8.02995H10.5794C10.8019 8.02995 11.0208 8.09656 11.2033 8.21897C11.3145 8.29277 11.4641 8.27477 11.559 8.18296L12.1937 7.57092C12.3233 7.44672 12.305 7.2397 12.1609 7.1299C11.714 6.78427 11.1558 6.59166 10.5831 6.58986V5.72581C10.5831 5.5674 10.4517 5.43779 10.2912 5.43779H9.70748C9.54696 5.43779 9.41562 5.5674 9.41562 5.72581V6.58986H9.37002C8.20805 6.58986 7.27411 7.57452 7.38173 8.7428C7.45834 9.57265 8.10043 10.2477 8.91034 10.4817L10.7801 11.0217C11.0081 11.0884 11.1668 11.2972 11.1668 11.5312C11.1668 11.8246 10.926 12.0622 10.6287 12.0622H9.41927C9.19672 12.0622 8.97783 11.9956 8.79542 11.8732C8.68415 11.7994 8.53457 11.8174 8.43972 11.9092L7.80492 12.5212C7.67541 12.6454 7.69365 12.8525 7.83776 12.9623C8.28467 13.3079 8.84284 13.5005 9.41562 13.5023V14.3664C9.41562 14.5248 9.54696 14.6544 9.70748 14.6544H10.2912C10.4517 14.6544 10.5831 14.5248 10.5831 14.3664V13.4987C11.4331 13.4825 12.2302 12.9839 12.5111 12.19C12.9033 11.0812 12.2448 9.94348 11.1887 9.63926Z" fill="white"/>
</svg>
