<svg width="16" height="16" viewBox="0 0 16 16" fill="none" xmlns="http://www.w3.org/2000/svg">
<g id="fantasy-sport" clip-path="url(#clip0_20201_4789)">
<path id="Vector" fill-rule="evenodd" clip-rule="evenodd" d="M9.83051 4.95928L9.30458 5.46305L9.42765 6.17031C9.47278 6.46812 9.2734 6.74299 8.98295 6.78893C8.873 6.80698 8.75321 6.78893 8.64901 6.7356L7.96719 6.38033L7.35265 6.7356C7.27635 6.77663 7.19102 6.79714 7.10569 6.79714C7.05154 6.79714 6.9982 6.78893 6.94487 6.77252C6.80785 6.73068 6.69545 6.63632 6.62899 6.50915C6.57484 6.41315 6.55432 6.29257 6.57319 6.17442L6.69791 5.4647L6.17606 4.96339C6.07268 4.86493 6.01524 4.73118 6.01196 4.58842C6.0095 4.44648 6.06283 4.31028 6.16211 4.20772C6.2458 4.12157 6.3582 4.06414 6.47802 4.04937L7.23614 3.94025L7.52085 3.30109C7.65951 3.03279 7.98196 2.92859 8.24944 3.06643C8.34543 3.11648 8.4242 3.19443 8.47753 3.29207L8.48081 3.30027L8.82296 3.98208L9.52939 4.05019C9.66805 4.06906 9.7944 4.14208 9.88138 4.25613C9.96753 4.37018 10.0036 4.51047 9.98394 4.65242C9.97163 4.76072 9.91666 4.87313 9.83051 4.95928ZM15.9759 2.62009C15.9415 2.30913 15.6781 2.07364 15.3647 2.07364H13.3438C13.3717 1.61417 13.3742 1.30813 13.3742 1.24496C13.3742 1.01851 13.1912 0.834717 12.9639 0.834717H3.03608C2.92695 0.834717 2.82275 0.878211 2.74563 0.955328C2.6685 1.03164 2.62584 1.13665 2.62584 1.24578C2.62584 1.30895 2.6283 1.61499 2.65619 2.07364H0.635347C0.321924 2.07364 0.0585492 2.30913 0.024089 2.62009C0.00767939 2.76286 -0.339384 6.13256 2.24923 7.83505C2.35344 7.90397 2.46994 7.93679 2.58645 7.93679C2.78665 7.93679 2.98274 7.83915 3.10171 7.65946C3.28796 7.37558 3.21002 6.99405 2.92531 6.80698C1.50916 5.87575 1.26384 4.17654 1.23512 3.30437H2.77188C3.09105 5.87165 4.11501 9.96173 7.38301 10.4245V11.8644H5.45978C5.28091 11.8644 5.12338 11.9801 5.06841 12.1491L4.49653 13.9345H3.40447C3.06479 13.9345 2.78911 14.2102 2.78911 14.5499C2.78911 14.8895 3.06479 15.1652 3.40447 15.1652H12.7129C13.0525 15.1652 13.3282 14.8895 13.3282 14.5499C13.3282 14.2102 13.0525 13.9345 12.7129 13.9345H11.62L11.0489 12.15C10.9948 11.9801 10.8372 11.8644 10.6584 11.8644H8.61373V10.4261C11.8891 9.96994 12.9114 5.87411 13.2298 3.30437H14.7649C14.7362 4.17654 14.4908 5.87575 13.0747 6.80698C12.79 6.99405 12.712 7.37558 12.8983 7.65946C13.0173 7.83915 13.2134 7.93679 13.4135 7.93679C13.5301 7.93679 13.6466 7.90397 13.7508 7.83505C16.3394 6.13256 15.9923 2.76286 15.9759 2.62009Z" fill="#9AA1B1"/>
</g>
<defs>
<clipPath id="clip0_20201_4789">
<rect width="16" height="15.9999" fill="white"/>
</clipPath>
</defs>
</svg>
