<svg viewBox="0 0 16 16" xmlns="http://www.w3.org/2000/svg">
  <g clip-path="url(#clip0_18445_1736)" fill="#9aa1b1">
    <path d="M0.62121 12.3601V9.34127C0.62121 9.3171 0.621169 9.10192 0.621094 8.92338C0.621037 8.79008 0.729304 8.68169 0.862601 8.68169H7.11954C7.25237 8.68169 7.36005 8.78937 7.36005 8.9222L7.36005 15.7595C7.36005 15.8923 7.25237 16 7.11954 16H3.91231C3.79829 16 3.68562 15.9942 3.57459 15.9828C2.62164 15.8921 1.84315 15.4457 1.32513 14.7378C0.889597 14.1808 0.630025 13.4796 0.630025 12.7177V12.663C0.624172 12.5637 0.62121 12.4627 0.62121 12.3601Z"/>
    <path d="M8.64402 15.7595C8.64402 15.8923 8.7517 16 8.88453 16H12.0968C12.2547 16 12.4101 15.9888 12.562 15.9673C13.375 15.8589 14.0532 15.4857 14.5403 14.9092C15.0618 14.3281 15.3791 13.56 15.3791 12.7177L15.368 8.9215C15.3676 8.78894 15.26 8.68169 15.1275 8.68169H8.88453C8.7517 8.68169 8.64402 8.78937 8.64402 8.9222V15.7595Z"/>
    <path fill-rule="evenodd" clip-rule="evenodd" d="M15.1229 7.40277C15.2558 7.40277 15.3635 7.29507 15.3634 7.16223L15.3634 7.01613C15.245 5.49906 14.4527 4.0897 12.8453 3.73893C13.1254 3.34892 13.2909 2.86773 13.2909 2.34886C13.2909 1.05782 12.2664 0 11.0004 0C9.45951 0 8.53496 1.13272 8.00188 2.19051C7.46873 1.13272 6.54426 0 4.99501 0C3.73729 0 2.70445 1.05782 2.70445 2.34886C2.70445 2.86799 2.87144 3.3494 3.1529 3.7395C1.54666 4.09123 0.755201 5.49983 0.636904 7.01613C0.633741 7.06258 0.630972 7.10909 0.628554 7.15564C0.621528 7.29092 0.730668 7.40277 0.866131 7.40277H15.1229ZM4.99501 3.44833C4.42029 3.44833 3.95385 2.9569 3.95385 2.34886C3.95385 1.74083 4.42029 1.2494 4.99501 1.2494C6.20276 1.2494 6.8691 2.57376 7.16895 3.44833H4.99501ZM11.0004 3.44833H8.8264C9.13459 2.57376 9.80926 1.2494 11.0004 1.2494C11.5751 1.2494 12.0415 1.74083 12.0415 2.34886C12.0415 2.9569 11.5751 3.44833 11.0004 3.44833Z"/>
  </g>
  <defs>
    <clipPath id="clip0_18445_1736">
      <rect width="16" height="16"/>
    </clipPath>
  </defs>
</svg>

