<svg viewBox="0 0 16 16" xmlns="http://www.w3.org/2000/svg">
  <path fill="#9aa1b1" d="M14.4422 4.89471L15.7078 5.93232C16.0486 6.21312 16.099 6.71712 15.8182 7.05872C15.6598 7.25152 15.431 7.35152 15.1998 7.35152C15.1015 7.35152 15.0028 7.33356 14.909 7.29697V13.1842C14.909 13.8454 14.644 14.4794 14.1724 14.9464C13.7008 15.4133 13.0615 15.6748 12.3954 15.6731H10.9694C10.7316 15.6731 10.5037 15.5789 10.3362 15.4114C10.1687 15.2439 10.0755 15.017 10.0772 14.781V12.0363C10.0772 11.7636 9.96815 11.5022 9.77398 11.3094C9.57981 11.1167 9.31645 11.0084 9.04185 11.0084H6.95156C6.37973 11.0084 5.91617 11.4686 5.91617 12.0363L5.89664 14.6402V14.7874C5.89306 15.2776 5.49177 15.6731 4.998 15.6731H3.60447C2.21627 15.6731 1.0909 14.5559 1.0909 13.1778V7.29725C0.777029 7.41974 0.407102 7.33331 0.18139 7.05872C-0.0986106 6.71712 -0.0490104 6.21312 0.29259 5.93232L1.55339 4.89871C1.55579 4.89631 1.55819 4.89391 1.56139 4.89151L6.44537 0.885105C7.34457 0.141104 8.65497 0.139504 9.55817 0.888305L14.439 4.89231L14.4422 4.89471Z"/>
</svg>
