<svg width="16" height="16" viewBox="0 0 16 16" fill="none" xmlns="http://www.w3.org/2000/svg">
<g clip-path="url(#clip0_0_76)">
<path d="M15.9806 0.632419C16.0027 0.661837 16.0063 0.705964 15.9894 0.730233C15.7053 1.04849 15.4155 1.3616 15.1201 1.66939C15.1084 1.67895 14.951 1.8459 14.7715 2.04079C14.5921 2.23568 14.4354 2.40263 14.4229 2.41145C14.4104 2.42101 14.2538 2.58796 14.0736 2.78285C13.8934 2.97774 13.7154 3.16675 13.6765 3.20353C13.6382 3.2403 13.6095 3.30281 13.6125 3.34326C13.6169 3.40871 13.6419 3.4168 13.85 3.42416C14.3281 3.44254 15.1253 3.4396 15.204 3.41975C15.2966 3.39548 15.5342 3.44843 15.5312 3.49182C15.529 3.52124 15.2341 3.58154 14.8583 3.62788C14.7384 3.64258 14.5759 3.66391 14.4965 3.67494C14.4163 3.68598 14.2538 3.70657 14.1339 3.72128C14.0148 3.73599 13.8522 3.75731 13.7721 3.76834L13.4102 3.81541C13.2911 3.83012 13.158 3.85292 13.116 3.86689C13.0477 3.88749 12.4946 4.45672 11.5937 5.43118C11.4569 5.57974 11.3348 5.70844 11.3223 5.718C11.3105 5.72683 11.1532 5.89377 10.9744 6.08866C10.7943 6.28356 10.6376 6.4505 10.6251 6.45933C10.6126 6.46889 10.456 6.63583 10.2765 6.83073C10.0971 7.02562 9.94041 7.19256 9.92791 7.20139C9.86098 7.24993 9.37044 7.80298 9.31749 7.88976C9.24689 8.0067 9.25424 8.03832 9.44472 8.4259L10.228 10.0174C10.4618 10.4925 10.8296 11.2426 11.0171 11.6273L11.3561 12.3157C11.6606 12.9312 11.6944 13.0239 11.6363 13.0849C11.6106 13.1121 11.5054 13.1364 11.4025 13.1401C10.777 13.1675 10.1514 13.1905 9.52562 13.2092C9.32778 13.2166 9.10936 13.2269 9.03949 13.2342C8.85784 13.2526 8.76223 13.1496 8.5791 12.7415C8.48014 12.5211 8.37962 12.3015 8.27757 12.0825C8.10695 11.7177 7.8091 11.0698 7.63333 10.6808C7.54801 10.4918 7.49139 10.4101 7.44358 10.4064C7.39725 10.4035 7.14867 10.6631 6.64563 11.2404C5.0203 13.1055 3.72077 14.5992 3.53471 14.8176C3.36408 15.0162 3.29422 15.0669 3.04049 15.1758C2.70586 15.3199 2.66394 15.3251 1.37692 15.3744C1.10995 15.3847 0.684867 15.4045 0.269343 15.4266C0.10681 15.4354 -0.0049774 15.3883 0.000170697 15.3133C0.00311247 15.2714 0.0207634 15.2523 3.26406 11.6986C3.83035 11.0772 4.64375 10.1873 5.06957 9.72175C6.39631 8.27366 6.53605 8.10892 6.51987 8.02361C6.51251 7.97949 6.35807 7.60441 6.17641 7.18815L5.51672 5.67167C5.37194 5.33633 5.22386 5.00242 5.07252 4.67C5.01 4.53762 4.9622 4.38391 4.96514 4.32949C4.9725 4.2177 5.01368 4.19784 5.40935 4.11621C5.67484 4.06032 6.0661 3.9397 6.06904 3.91323C6.06978 3.90293 5.80428 3.88234 5.47774 3.86616C5.15194 3.84998 4.84747 3.82424 4.80114 3.80879C4.71288 3.78011 4.54962 3.51241 4.40841 3.16455C4.31133 2.92406 4.34222 2.87772 4.61066 2.86081L5.01515 2.83286C5.21299 2.81815 5.40861 2.80492 6.07787 2.76373C6.48309 2.73873 6.84861 2.71151 6.96628 2.69681C7.02879 2.68945 7.11263 2.70416 7.15308 2.72916C7.195 2.75564 7.30458 2.96377 7.41049 3.2175C7.51124 3.46093 7.61347 3.66318 7.63847 3.66759C7.66201 3.67127 7.9253 3.68818 8.22389 3.70436C8.75414 3.73525 8.913 3.76246 8.90858 3.8235C8.90711 3.85439 8.79312 3.88528 8.28713 3.99413C7.88705 4.08017 7.84955 4.09709 7.8444 4.18902C7.84072 4.26256 8.0084 4.67147 8.36141 5.44809C8.46437 5.67388 8.50924 5.73712 8.57101 5.7408C8.62764 5.74374 8.75488 5.62828 9.03728 5.3216C9.25056 5.08773 9.45208 4.87224 9.48443 4.84135C9.51679 4.81047 9.68374 4.63322 9.85657 4.44789C10.0294 4.26183 10.2066 4.08164 10.2515 4.04708C10.303 4.00736 10.6111 3.93382 11.0781 3.84924C11.4878 3.7757 11.8342 3.7051 11.8481 3.69333C11.9092 3.63964 11.7871 3.61096 11.3091 3.56683C10.767 3.51682 10.7295 3.49917 10.8693 3.36606C10.9068 3.33002 11.0848 3.14175 11.2649 2.94686C11.4444 2.75123 11.6018 2.58428 11.6143 2.57546C11.6268 2.56663 11.7834 2.39895 11.9629 2.20479C12.1423 2.00917 12.299 1.84222 12.3115 1.8334C12.324 1.82457 12.4814 1.65689 12.6615 1.46273C12.9734 1.12443 13.0499 1.045 13.2852 0.808925C13.394 0.698609 13.3308 0.708905 14.2045 0.671398C14.3825 0.664043 14.6575 0.650805 14.8157 0.642716C14.9738 0.634626 15.2532 0.625065 15.4349 0.621388C15.6173 0.61771 15.7783 0.604473 15.7931 0.59197C15.8372 0.552992 15.9394 0.575055 15.9806 0.632419Z" fill="white"/>
</g>
<defs>
<clipPath id="clip0_0_76">
<rect width="16" height="16" fill="white"/>
</clipPath>
</defs>
</svg>
