<svg width="16" height="16" viewBox="0 0 16 16" fill="none" xmlns="http://www.w3.org/2000/svg">
<path fill-rule="evenodd" clip-rule="evenodd" d="M12.92 0.0632229C11.9083 0.130256 6.50848 0.534337 6.50112 0.543495C6.4912 0.555873 6.56786 3.10129 6.57848 3.11275C6.58187 3.11643 7.55111 3.04961 8.73232 2.9643C10.1857 2.85934 10.8847 2.82338 10.8947 2.85311C10.9179 2.92248 11.2007 6.25269 11.2713 7.2878C11.3052 7.78512 11.2371 8.29449 11.1008 8.56341C10.8222 9.11325 10.2419 9.39659 9.76644 9.21502C9.41299 9.08007 9.03142 8.57049 8.96296 8.14217C8.94867 8.05266 8.91063 7.95751 8.8785 7.93089C8.81116 7.87502 8.15433 7.89816 6.81951 8.00341L6.51069 8.0278L6.53671 8.30774C6.6568 9.59994 7.48905 10.8418 8.61406 11.4074C9.1446 11.6742 9.50867 11.7598 10.0973 11.7563C10.5163 11.7539 10.6613 11.7348 10.9755 11.6404C12.0212 11.3262 12.8543 10.5983 13.3189 9.59279C13.5053 9.18925 13.6187 8.72157 13.6752 8.12282C13.7266 7.57836 13.7188 7.39613 13.5642 5.55237C13.5073 4.87389 13.4333 3.98004 13.3996 3.56605C13.366 3.15206 13.3281 2.75191 13.3154 2.67681C13.2941 2.55089 13.3023 2.53822 13.4209 2.51451C13.513 2.49611 13.5441 2.46964 13.5307 2.4211C13.5203 2.38384 13.4996 2.16517 13.4846 1.93517C13.4196 0.940761 13.3365 0.143554 13.2921 0.0901113C13.2658 0.0584138 13.2231 0.0359579 13.1971 0.0402233C13.1712 0.0444886 13.0465 0.0548176 12.92 0.0632229Z" fill="white"/>
<path d="M9.69358 12.9022L10.1341 15.4477C8.84696 15.6702 7.50816 15.8254 6.16607 15.9098C5.12211 15.9757 4.07609 15.9988 3.0501 15.978L3.07975 14.511C2.9156 10.8483 2.64278 7.18066 2.25305 3.58645L4.82116 3.30872C5.17941 6.61266 5.44171 9.97856 5.61324 13.3454C6.99292 13.2737 8.37351 13.1302 9.69496 12.9018L9.69358 12.9022Z" fill="white"/>
</svg>
