<svg width="17" height="16" viewBox="0 0 17 16" xmlns="http://www.w3.org/2000/svg">
  <path fill="#9aa1b1" fill-rule="evenodd" clip-rule="evenodd" d="M10.9691 1.29269C10.8508 1.0607 10.6939 0.850544 10.505 0.671201C10.2947 0.45863 10.0444 0.289862 9.76845 0.174654C9.49252 0.0594458 9.19648 8.42605e-05 8.89746 0H3.09694C2.50121 0.0108275 1.93342 0.254551 1.51522 0.678953C1.09701 1.10336 0.861661 1.67467 0.859596 2.27049V11.3856C0.851911 11.6924 0.906722 11.9975 1.02068 12.2824C1.13465 12.5673 1.30539 12.826 1.52251 13.0429C1.95439 13.4513 2.52742 13.6769 3.1218 13.6727H8.92233C9.52602 13.6705 10.1044 13.4297 10.5312 13.0028C10.9581 12.5759 11.1989 11.9976 11.2011 11.3939V2.27878C11.2045 1.93617 11.1249 1.59783 10.9691 1.29269ZM3.21144 7.42186C3.21144 8.29065 3.89306 8.99492 4.73387 8.99492C5.23015 8.99492 5.72798 8.75823 6.00568 8.37838L6.08862 8.24638L6.17151 8.3783C6.44921 8.7582 6.83047 8.99492 7.32677 8.99492C8.16759 8.99492 8.84901 8.29065 8.84901 7.42186C8.84901 5.98671 6.83408 4.45533 6.24721 4.03974C6.15066 3.97137 6.02601 3.97009 5.9281 4.03651C5.32261 4.44735 3.21144 5.98297 3.21144 7.42186ZM6.1133 8.81112C6.09968 8.79722 6.0773 8.79722 6.06368 8.81112L5.26542 9.62614C5.2439 9.64812 5.25947 9.68516 5.29023 9.68516H6.88675C6.91751 9.68516 6.93308 9.64812 6.91156 9.62614L6.1133 8.81112Z"/>
  <path fill="#9aa1b1" fill-rule="evenodd" clip-rule="evenodd" d="M16.7613 5.38604L14.1676 14.12C14.0274 14.595 13.7383 15.0124 13.343 15.3108C12.9477 15.6092 12.467 15.7727 11.9717 15.7773C11.7547 15.7679 11.54 15.7289 11.3336 15.6612L8.79799 14.9072H8.90571C9.83839 14.9028 10.7316 14.5304 11.3911 13.8709C12.0507 13.2114 12.4231 12.3181 12.4275 11.3854V2.27033C12.4439 2.08009 12.4439 1.88879 12.4275 1.69856L15.2531 2.52721C15.8294 2.71041 16.3106 3.11287 16.5927 3.64773C16.8749 4.18259 16.9354 4.80694 16.7613 5.38604ZM15.0203 3.92784L15.6509 4.11332L15.1583 5.78803C15.1114 5.94744 15.0336 6.07931 14.9228 6.17993C14.8138 6.2799 14.684 6.34345 14.5354 6.37052C14.3867 6.3976 14.2292 6.38535 14.0642 6.33684C13.9171 6.29357 13.789 6.22776 13.6813 6.13842C13.5724 6.04663 13.4964 5.93257 13.4556 5.79831C13.414 5.65995 13.4209 5.50742 13.4697 5.34448L13.4922 5.26929L14.124 5.45511L14.1041 5.52945C14.0904 5.58079 14.0889 5.62333 14.0961 5.65875C14.1044 5.6941 14.1201 5.72299 14.1435 5.74716C14.1677 5.77084 14.2014 5.79053 14.2477 5.80416C14.2966 5.81855 14.3354 5.81876 14.3668 5.8102C14.3991 5.8011 14.4288 5.78216 14.4559 5.74952C14.4835 5.71647 14.5082 5.66871 14.5277 5.60254L15.0203 3.92784Z"/>
</svg>

