<svg width="16" height="16" viewBox="0 0 16 16" fill="none" xmlns="http://www.w3.org/2000/svg">
<g clip-path="url(#clip0_2427_374)">
<path fill-rule="evenodd" clip-rule="evenodd" d="M15.5733 7.41416C12.2699 6.34585 9.65743 3.73415 8.58502 0.425026C8.50297 0.172309 8.26666 9.53674e-07 8 9.53674e-07C7.73251 9.53674e-07 7.4962 0.172309 7.41415 0.425026C6.34174 3.73415 3.72923 6.34585 0.425846 7.41416C0.171487 7.49703 0 7.73334 0 8.00001C0 8.26667 0.171487 8.50298 0.425846 8.58585C3.72923 9.65334 6.34256 12.2658 7.41415 15.5742C7.4962 15.8277 7.73251 16 8 16C8.26666 16 8.50297 15.8277 8.58502 15.5742C9.65661 12.2658 12.2699 9.65334 15.5733 8.58585C15.8277 8.50298 16 8.26667 16 8.00001C16 7.73334 15.8277 7.49703 15.5733 7.41416Z" fill="#D0D0D0"/>
</g>
<defs>
<clipPath id="clip0_2427_374">
<rect width="16" height="16" fill="white"/>
</clipPath>
</defs>
</svg>
