<svg width="16" height="16" viewBox="0 0 16 16" fill="none" xmlns="http://www.w3.org/2000/svg">
<g clip-path="url(#clip0_2427_375)">
<path d="M6.3466 0.859573C7.28316 -0.0838449 8.81207 -0.0838448 9.75663 0.852371L10.341 1.43571C10.5651 1.65976 10.8693 1.78859 11.1895 1.78859H12.014C13.3428 1.78859 14.4234 2.86804 14.4234 4.19634V5.02133C14.4234 5.34061 14.5515 5.64468 14.7756 5.86873L15.3519 6.44486C15.8082 6.89297 16.0564 7.50111 16.0564 8.14126C16.0644 8.7814 15.8162 9.39034 15.368 9.84565L14.7756 10.4378C14.5515 10.6618 14.4234 10.9659 14.4234 11.2868V12.1102C14.4234 13.4385 13.3428 14.5195 12.014 14.5195H11.1895C10.8693 14.5195 10.5651 14.6468 10.341 14.8708L9.76463 15.4469C9.29235 15.9199 8.67599 16.1511 8.05962 16.1511C7.44325 16.1511 6.82689 15.9199 6.35461 15.4557L5.77026 14.8708C5.54613 14.6468 5.24195 14.5195 4.92176 14.5195H4.09727C2.76848 14.5195 1.68784 13.4385 1.68784 12.1102V11.2868C1.68784 10.9659 1.55976 10.6618 1.33563 10.4298L0.759288 9.86165C-0.177267 8.92624 -0.185272 7.39708 0.751284 6.45367L1.33563 5.86873C1.55976 5.64468 1.68784 5.34061 1.68784 5.01253V4.19634C1.68784 2.86804 2.76848 1.78859 4.09727 1.78859H4.92176C5.24195 1.78859 5.54613 1.65976 5.77026 1.43571L6.3466 0.859573ZM10.1168 9.50957C9.72461 9.50957 9.41242 9.82244 9.41242 10.2057C9.41242 10.5978 9.72461 10.9099 10.1168 10.9099C10.5011 10.9099 10.8133 10.5978 10.8133 10.2057C10.8133 9.82244 10.5011 9.50957 10.1168 9.50957ZM10.6051 5.59667C10.333 5.32541 9.89271 5.32541 9.62055 5.59667L5.50611 9.70962C5.23394 9.98168 5.23394 10.4298 5.50611 10.7018C5.63418 10.8379 5.81029 10.9099 5.9944 10.9099C6.18651 10.9099 6.36261 10.8379 6.49069 10.7018L10.6051 6.5897C10.8773 6.31763 10.8773 5.86873 10.6051 5.59667ZM6.0024 5.39662C5.61817 5.39662 5.29798 5.70869 5.29798 6.09278C5.29798 6.48567 5.61817 6.79695 6.0024 6.79695C6.38663 6.79695 6.69881 6.48567 6.69881 6.09278C6.69881 5.70869 6.38663 5.39662 6.0024 5.39662Z" fill="#9AA1B1"/>
</g>
<defs>
<clipPath id="clip0_2427_375">
<rect width="16" height="16" fill="white"/>
</clipPath>
</defs>
</svg>
