<svg width="61" height="22" viewBox="0 0 61 22" fill="none" xmlns="http://www.w3.org/2000/svg">
<path d="M1.5 11C1.5 5.99749 5.36409 1.94216 10.1307 1.94216H59.8397C60.2044 1.94216 60.5 2.2524 60.5 2.63511V19.3649C60.5 19.7476 60.2044 20.0578 59.8397 20.0578H10.1307C5.36409 20.0578 1.5 16.0025 1.5 11Z" fill="#2C2A2B"/>
<g filter="url(#filter0_d_0_6)">
<path d="M18.0067 11.0001C18.0067 15.0732 14.8605 18.3751 10.9795 18.3751C7.09851 18.3751 3.95233 15.0732 3.95233 11.0001C3.95233 6.92705 7.09851 3.62517 10.9795 3.62517C14.8605 3.62517 18.0067 6.92705 18.0067 11.0001Z" fill="#A28E2F"/>
</g>
<g filter="url(#filter1_d_0_6)">
<path d="M17.2993 11.0001C17.2993 15.0732 14.1531 18.3751 10.2721 18.3751C6.39111 18.3751 3.24493 15.0732 3.24493 11.0001C3.24493 6.92705 6.39111 3.62517 10.2721 3.62517C14.1531 3.62517 17.2993 6.92705 17.2993 11.0001Z" fill="#2C2A2B"/>
</g>
<path fill-rule="evenodd" clip-rule="evenodd" d="M58.2976 3.92877C57.3802 4.4707 56.382 5.2472 55.2795 6.27653C54.3825 7.11396 52.629 9.01532 51.8367 10.0096C51.707 10.1723 51.5441 10.3728 51.4748 10.4551C51.1577 10.8313 50.0827 12.2612 49.4544 13.1423C49.1968 13.5036 48.9716 13.8043 48.9538 13.8105C48.9361 13.8168 48.8836 13.7045 48.8371 13.561C48.7132 13.1782 48.3483 12.3881 48.1111 11.9884C47.8487 11.5466 47.4363 11.1325 47.0469 10.92C46.7619 10.7645 46.714 10.7543 46.2715 10.7537C45.8439 10.7531 45.7747 10.7665 45.5297 10.8968C45.2476 11.0468 44.8067 11.4758 44.6413 11.7612C44.5883 11.8527 44.5514 11.9856 44.5593 12.0565C44.5727 12.1768 44.5969 12.1888 44.9274 12.2386C45.3721 12.3056 45.6347 12.4489 45.9684 12.8068C46.1909 13.0455 46.2758 13.195 46.5191 13.7772C46.8483 14.5647 47.295 15.81 47.7565 17.2264C47.9319 17.7649 48.1126 18.2485 48.1578 18.301C48.2854 18.4489 48.5382 18.5203 48.6943 18.4524C48.7934 18.4093 48.8663 18.2978 49.0019 17.9817C49.7089 16.3343 52.0007 12.4386 53.6913 10.0106C53.9378 9.65674 54.2149 9.25582 54.3073 9.1197C54.7153 8.51837 55.5882 7.36372 56.056 6.80644C56.731 6.00237 57.5121 5.21429 58.5707 4.26906C58.8451 4.02405 59.0711 3.79815 59.0728 3.76701C59.0764 3.7049 58.9712 3.65035 58.8479 3.65035C58.8044 3.65035 58.5568 3.77563 58.2976 3.92877ZM13.1521 7.46034C12.9891 7.50092 12.5232 7.91461 12.0015 8.48209C11.3981 9.13841 11.0877 9.56255 10.5405 10.4782C10.3688 10.7655 10.199 11.0006 10.1632 11.0006C10.11 11.0006 10.0958 10.7804 10.0854 9.79191C10.0767 8.95325 10.0557 8.56168 10.0171 8.51283C9.97465 8.45912 9.86565 8.4467 9.55811 8.46056C8.89567 8.49046 8.83388 8.54267 8.16437 9.63942C7.97327 9.95248 7.57003 10.6095 7.26833 11.0996C5.81998 13.452 5.64124 13.751 5.64124 13.8218C5.64124 13.9237 6.20949 14.787 6.27661 14.787C6.30575 14.787 6.63542 14.2692 7.00913 13.6363C7.38284 13.0033 7.91389 12.1068 8.18922 11.644C8.46456 11.1812 8.76946 10.6634 8.8668 10.4932C8.97132 10.3105 9.07616 10.1839 9.12285 10.1839C9.19553 10.1838 9.20199 10.337 9.20199 12.0594C9.20199 14.3188 9.15369 14.1547 9.81212 14.1329L10.2396 14.1188L10.3007 13.6734C10.3734 13.1436 10.6306 12.2687 10.849 11.8085C11.0978 11.2843 11.4966 10.6788 11.5931 10.6788C11.6683 10.6788 11.6781 10.7283 11.679 11.1119C11.6808 11.8512 11.8719 12.5661 12.3194 13.5072C12.6327 14.166 12.799 14.2578 13.6352 14.2331C14.3041 14.2134 14.3108 14.189 13.8223 13.5493C13.4233 13.0268 13.1523 12.4872 12.9896 11.8915C12.841 11.3473 12.8413 10.3925 12.9903 9.81988C13.0993 9.40129 13.4013 8.72136 13.708 8.20402C13.9519 7.79261 14.0006 7.6652 13.9671 7.52537C13.942 7.42069 13.9159 7.41247 13.6226 7.41713C13.448 7.41995 13.2362 7.43935 13.1521 7.46034Z" fill="#F9D107"/>
<path fill-rule="evenodd" clip-rule="evenodd" d="M25.5732 6.0958C25.2661 6.21617 25.0985 6.44306 24.6696 7.3193C24.2003 8.27804 24.1404 8.36872 23.8856 8.50513C23.7603 8.5722 23.7035 8.63318 23.7138 8.68941C23.7268 8.76088 23.8022 8.77553 24.2199 8.78761C24.7537 8.80305 24.834 8.76751 24.7108 8.57017C24.6475 8.4689 24.65 8.43559 24.7358 8.23201L24.831 8.00621H25.1457C25.449 8.00621 25.4593 8.01022 25.4319 8.11757C25.4163 8.17885 25.4032 8.25933 25.4029 8.2965C25.4025 8.33368 25.3237 8.4395 25.2278 8.53171C25.1014 8.65327 25.0677 8.7143 25.1051 8.7536C25.1691 8.82082 26.4422 8.81537 26.5068 8.74766C26.5344 8.71866 26.5273 8.65446 26.4878 8.57705C26.4167 8.43772 26.4106 8.46741 26.731 7.39206C26.9784 6.5618 26.9501 6.35031 26.5641 6.14079C26.3673 6.03397 25.797 6.00809 25.5732 6.0958ZM19.3153 6.21266C18.8884 6.44672 18.7218 6.9557 18.9539 7.31707C19.0612 7.48427 19.2316 7.62801 19.6715 7.92276C19.9474 8.10763 19.9848 8.21469 19.8143 8.33199C19.6456 8.44791 19.373 8.36209 19.2106 8.14203C18.9872 7.83926 18.8917 7.75873 18.7563 7.75873C18.6826 7.75873 18.601 7.78659 18.5749 7.8206C18.4832 7.94018 18.2786 8.61417 18.3063 8.70564C18.3479 8.84324 18.644 8.82923 18.8201 8.68134L18.9586 8.56502L19.1738 8.68079C19.5842 8.90165 20.2516 8.87923 20.5998 8.63293C20.8153 8.48058 20.9672 8.18068 20.9682 7.90613C20.9693 7.6041 20.7966 7.39072 20.3081 7.09018C20.0997 6.96198 19.9093 6.818 19.885 6.77028C19.836 6.67426 19.9025 6.55408 20.0302 6.508C20.1506 6.46449 20.4591 6.64085 20.6492 6.86185C20.9597 7.22293 21.1301 7.12755 21.2855 6.50558C21.3592 6.21068 21.3608 6.16524 21.2988 6.12411C21.1809 6.04585 20.9886 6.07016 20.8555 6.18004L20.7292 6.28428L20.4984 6.18004C20.1444 6.02021 19.641 6.03412 19.3153 6.21266ZM21.7854 6.15663C21.7691 6.20107 21.7812 6.28017 21.8123 6.33239C21.8593 6.41133 21.8201 6.59546 21.5792 7.4271C21.3268 8.29853 21.271 8.44326 21.1449 8.55428C20.8868 8.78137 20.9636 8.79815 22.2614 8.79815C23.6304 8.79815 23.5363 8.83052 23.6818 8.30957C23.7681 8.00106 23.768 7.99274 23.681 7.92597C23.5303 7.8103 23.4311 7.84757 23.1384 8.12995C22.8748 8.38426 22.8407 8.40218 22.6201 8.40218C22.4901 8.40218 22.3844 8.39659 22.385 8.3898C22.3856 8.38302 22.4355 8.19924 22.4959 7.98146C22.6241 7.51931 22.7266 7.44977 22.9008 7.70651C23.0252 7.88999 23.2001 7.90751 23.2987 7.74635C23.3362 7.68508 23.4022 7.5059 23.4453 7.3481C23.507 7.1222 23.5116 7.04593 23.4668 6.98925C23.3832 6.88353 23.2583 6.90115 23.0999 7.04103C23.0228 7.10909 22.9058 7.16477 22.8399 7.16477H22.7202L22.9345 6.49657L23.158 6.48132C23.4134 6.4639 23.4969 6.51681 23.5401 6.72321C23.5808 6.91768 23.6829 7.01628 23.8435 7.01628C24.0106 7.01628 24.0516 6.96089 24.1493 6.60338C24.2215 6.33927 24.2219 6.30388 24.1539 6.19504L24.0795 6.07585H22.9472C21.9434 6.07585 21.8116 6.08501 21.7854 6.15663ZM27.3989 6.15326C27.3834 6.19583 27.394 6.28443 27.4225 6.35016C27.4659 6.44999 27.4278 6.6306 27.1919 7.44561C26.9433 8.30452 26.8916 8.43707 26.761 8.55156C26.4991 8.78102 26.5746 8.79815 27.847 8.79815C28.7756 8.79815 29.0321 8.7839 29.108 8.72811C29.1637 8.68718 29.2495 8.50325 29.3148 8.28497C29.4442 7.85168 29.4134 7.75873 29.1401 7.75873C28.9984 7.75873 28.9334 7.80436 28.6817 8.08045C28.4127 8.3755 28.3722 8.40218 28.1923 8.40218C28.0844 8.40218 27.9961 8.38377 27.9961 8.36125C27.9961 8.33872 28.1231 7.89999 28.2782 7.38627C28.5071 6.62872 28.5843 6.43222 28.6871 6.3462C28.7712 6.27586 28.8037 6.21251 28.7838 6.15801C28.7577 6.08684 28.6649 6.07585 28.0905 6.07585C27.5324 6.07585 27.4227 6.08812 27.3989 6.15326ZM25.8267 6.75291C25.8267 6.82587 25.78 7.03746 25.7231 7.22313L25.6195 7.56074H25.3458C25.1952 7.56074 25.0721 7.54906 25.0721 7.53475C25.0721 7.47892 25.4168 6.78865 25.4855 6.70693C25.5256 6.65926 25.6187 6.62031 25.6925 6.62031C25.8066 6.62031 25.8267 6.64016 25.8267 6.75291ZM22.4765 10.0479C22.2455 10.1703 22.1498 10.322 22.1487 10.5676C22.1481 10.7136 22.1348 10.7285 22.0051 10.7285C21.82 10.7285 21.7755 10.848 21.9062 10.9941C22.0401 11.1436 22.0347 11.2088 21.8374 11.8303C21.7271 12.1778 21.6369 12.3806 21.578 12.4137C21.5284 12.4415 21.4878 12.497 21.4878 12.5369C21.4878 12.5968 21.5935 12.6094 22.0981 12.6094C22.6999 12.6094 22.8395 12.5728 22.7193 12.4467C22.638 12.3613 22.6506 12.2801 22.8415 11.6566C23.012 11.0997 23.0251 11.075 23.1498 11.075C23.2213 11.075 23.3238 11.029 23.3774 10.9727C23.5146 10.8287 23.4242 10.7285 23.1572 10.7285C22.9794 10.7285 22.9478 10.7124 22.9231 10.6094C22.8836 10.4441 23.0208 10.1876 23.1502 10.1848C23.1697 10.1844 23.1856 10.2496 23.1856 10.3297C23.1856 10.5077 23.3326 10.6295 23.5476 10.6295C24.0168 10.6295 24.1416 10.2201 23.7342 10.0172C23.6202 9.96047 23.4411 9.93657 23.1295 9.93657C22.7642 9.93657 22.6501 9.95602 22.4765 10.0479ZM20.2769 10.7307C19.8818 10.8127 19.5625 11.0622 19.3867 11.4263C19.1718 11.8714 19.2621 12.3027 19.6148 12.5146C19.7865 12.6178 19.8744 12.634 20.2615 12.6341C20.6574 12.6341 20.7411 12.6179 20.9798 12.4948C21.3098 12.3248 21.5143 12.0761 21.6118 11.7267C21.7074 11.3838 21.6653 11.1524 21.47 10.9475C21.2331 10.6988 20.8052 10.6211 20.2769 10.7307ZM20.7332 11.1716C20.7332 11.3617 20.4789 12.155 20.387 12.2514C20.3477 12.2927 20.2812 12.3119 20.2379 12.2945C20.1776 12.2702 20.1667 12.2261 20.1903 12.1021C20.2443 11.8187 20.4004 11.3522 20.4968 11.1864C20.6163 10.9807 20.7332 10.9735 20.7332 11.1716ZM20.3323 13.3456C19.9483 13.4519 19.7426 13.6544 19.4712 14.1933C19.3684 14.3974 19.1444 14.844 18.9735 15.1856C18.6507 15.831 18.5819 15.9242 18.3198 16.0717C18.2095 16.1339 18.1628 16.1951 18.1628 16.278C18.1628 16.3942 18.17 16.396 18.6864 16.4098C19.1098 16.421 19.2214 16.4093 19.2697 16.3481C19.3184 16.2866 19.3157 16.2505 19.2551 16.1535C19.1732 16.0223 19.2052 15.8158 19.3413 15.5978C19.4071 15.4925 19.4494 15.4802 19.7438 15.4802C19.9248 15.4802 20.0727 15.4968 20.0726 15.5173C20.0713 15.7041 19.9482 15.9731 19.8035 16.1053C19.6897 16.2092 19.6436 16.2865 19.6633 16.3404C19.6885 16.4094 19.791 16.4206 20.3977 16.4206C20.7855 16.4206 21.1363 16.4071 21.1773 16.3906C21.2602 16.3572 21.2784 16.1961 21.2048 16.1484C21.1216 16.0944 21.1526 15.928 21.4016 15.0892C21.7466 13.9274 21.7253 13.6545 21.2728 13.4444C21.0421 13.3373 20.5492 13.2855 20.3323 13.3456ZM32.9954 13.3567C32.7155 13.414 32.2596 13.6545 32.0461 13.8574C31.5461 14.3325 31.2509 15.3272 31.4564 15.8436C31.5456 16.0675 31.8746 16.3498 32.1229 16.4154C32.5514 16.5286 33.1849 16.4643 33.5853 16.2667C34.112 16.0069 34.5774 15.3448 34.6948 14.6882C34.8718 13.6986 34.1368 13.1227 32.9954 13.3567ZM39.1402 13.3566C38.7659 13.4504 38.5633 13.7142 38.0044 14.8352C37.5904 15.6657 37.4696 15.8682 37.3343 15.9582C36.9839 16.1912 36.9301 16.2527 36.9994 16.3404C37.0507 16.4053 37.1599 16.4206 37.5701 16.4206C38.1561 16.4206 38.237 16.3786 38.1074 16.1414C38.0333 16.006 38.0347 15.9858 38.1357 15.7395L38.242 15.4802H38.5899C38.7812 15.4802 38.9378 15.4996 38.9378 15.5234C38.9378 15.6719 38.7711 16.0147 38.6454 16.1249C38.5443 16.2134 38.5066 16.2814 38.5272 16.3378C38.5538 16.4103 38.6483 16.4206 39.2843 16.4206C39.8893 16.4206 40.0213 16.4075 40.0728 16.3423C40.1214 16.281 40.1227 16.2437 40.0787 16.1697C39.9934 16.0266 40.0028 15.9737 40.2851 14.9969C40.5641 14.0315 40.574 13.9086 40.3946 13.6421C40.2245 13.3895 39.5875 13.2446 39.1402 13.3566ZM25.4888 13.3918C25.3359 13.4104 25.2924 13.5094 25.3643 13.6749C25.4293 13.8248 25.4067 13.9313 25.0559 15.1257C24.8482 15.8328 24.7809 16.0031 24.6732 16.0931C24.5906 16.1623 24.5492 16.2379 24.5604 16.2991C24.5768 16.3892 24.6267 16.3968 25.2849 16.4101C25.6737 16.4178 26.0395 16.4118 26.0979 16.3967C26.2316 16.362 26.235 16.223 26.1051 16.1062C26.0239 16.0333 26.012 15.9847 26.0386 15.8354C26.0565 15.7353 26.0988 15.584 26.1325 15.4991L26.1939 15.3448L26.7059 15.3189C27.0066 15.3037 27.3097 15.2585 27.4402 15.2093C28.0478 14.9806 28.373 14.1741 28.0379 13.7271C27.8321 13.4524 27.7269 13.4281 26.6284 13.4013C26.0708 13.3877 25.5579 13.3834 25.4888 13.3918ZM34.8787 13.4121C34.7606 13.4581 34.7632 13.541 34.8874 13.6797C35.0005 13.8061 35.0554 14.0277 35.2601 15.1832C35.4318 16.153 35.4744 16.3066 35.5899 16.3715C35.7257 16.4477 35.8956 16.4298 36.0215 16.3259C36.0846 16.2737 36.4094 15.7828 36.7434 15.2349C37.2177 14.4566 37.3668 14.2464 37.425 14.2739C37.4659 14.2932 37.5857 14.3184 37.6913 14.3297C38.1824 14.3824 38.4194 13.6566 37.9877 13.4224C37.8242 13.3336 37.6568 13.3328 37.4625 13.4197C37.2552 13.5124 37.1606 13.6341 36.7955 14.2784C36.6224 14.5839 36.4623 14.8458 36.4398 14.8605C36.3951 14.8894 36.3767 14.8107 36.2921 14.2289C36.2414 13.8802 36.2444 13.8278 36.3239 13.673C36.3858 13.5523 36.3968 13.4866 36.3615 13.4495C36.3039 13.3891 35.0208 13.3568 34.8787 13.4121ZM41.7131 13.3888C41.0097 13.4055 40.9513 13.4324 41.076 13.6822C41.1324 13.7952 41.1075 13.9151 40.8224 14.8998C40.535 15.8928 40.4922 16.0041 40.3511 16.125C40.246 16.215 40.2055 16.2841 40.2257 16.3393C40.2522 16.412 40.3926 16.4206 41.5512 16.4206C43.0747 16.4206 43.01 16.4435 43.1777 15.8437C43.2996 15.4076 43.3004 15.3485 43.1855 15.2839C42.9785 15.1676 42.8564 15.2226 42.475 15.6039C42.1345 15.9443 42.0873 15.9751 41.9069 15.9751C41.6728 15.9751 41.6636 16.0749 42.0077 14.8862C42.2937 13.8984 42.343 13.776 42.4967 13.6703C42.6497 13.565 42.6493 13.4615 42.4955 13.4001C42.4289 13.3735 42.3706 13.3567 42.3658 13.3627C42.361 13.3686 42.0673 13.3804 41.7131 13.3888ZM22.2111 13.4787C22.1955 13.5213 22.2056 13.6086 22.2334 13.6727C22.2919 13.8075 22.2939 13.7989 21.9297 15.0594C21.7103 15.8192 21.6512 15.9697 21.5286 16.0815C21.4415 16.1609 21.3913 16.2489 21.4015 16.3043C21.4168 16.3883 21.4826 16.3969 22.2009 16.4094C22.8631 16.4208 22.9929 16.411 23.0446 16.3457C23.0961 16.2807 23.0855 16.2464 22.9771 16.1277L22.8486 15.9869L23.0327 15.3564L23.569 15.3275C24.1562 15.2959 24.46 15.1943 24.712 14.9454C24.8981 14.7616 25.0249 14.4315 25.0249 14.1312C25.0249 13.8985 25.0093 13.8636 24.8194 13.6727C24.7035 13.556 24.5467 13.4519 24.4598 13.4337C24.375 13.4159 23.8408 13.4013 23.2726 13.4013C22.379 13.4013 22.2356 13.4118 22.2111 13.4787ZM28.4824 13.4821C28.4662 13.5265 28.4774 13.6042 28.5075 13.6547C28.5375 13.7052 28.5621 13.7746 28.5621 13.809C28.562 13.8434 28.4327 14.317 28.2747 14.8615C28.1168 15.4059 27.9771 15.8876 27.9643 15.9318C27.9515 15.976 27.8792 16.0602 27.8035 16.1189C27.6514 16.2369 27.6264 16.3446 27.7406 16.3906C27.7817 16.4071 28.1301 16.4206 28.5149 16.4206C28.8998 16.4206 29.2482 16.4071 29.2892 16.3906C29.3906 16.3497 29.383 16.2562 29.2695 16.1484C29.1498 16.0347 29.1511 15.9401 29.2785 15.4948L29.3819 15.1337H29.5558C29.8199 15.1337 29.8533 15.2093 29.7831 15.6478C29.7381 15.9288 29.7367 16.0493 29.7774 16.143C29.9457 16.5307 30.7316 16.5767 31.0726 16.2187C31.2327 16.0508 31.2283 15.9177 31.0615 15.8754C30.966 15.8512 30.9456 15.8181 30.9533 15.7C30.9897 15.144 30.9864 15.1205 30.8566 15.0118L30.7306 14.9065L30.9437 14.7978C31.064 14.7364 31.1978 14.6187 31.2507 14.5278C31.488 14.1194 31.3878 13.767 30.9692 13.5375L30.7208 13.4013H29.6164C28.6384 13.4013 28.5086 13.4106 28.4824 13.4821ZM23.8869 13.949C23.9466 14.0611 23.9446 14.109 23.8701 14.3574C23.7598 14.7257 23.6073 14.8862 23.3678 14.8862C23.2676 14.8862 23.1856 14.865 23.1856 14.839C23.1856 14.7766 23.4523 13.9145 23.4929 13.8455C23.5524 13.7446 23.8148 13.8135 23.8869 13.949ZM26.9617 13.8485C27.1311 13.9436 27.0252 14.5617 26.8029 14.7754C26.68 14.8936 26.3455 14.9498 26.3455 14.8523C26.3455 14.788 26.5456 14.0439 26.6059 13.8839C26.6425 13.7869 26.8205 13.7692 26.9617 13.8485ZM33.5592 13.9153C33.6471 14.158 33.2744 15.5043 33.0238 15.8491C32.8915 16.0312 32.6924 16.11 32.5899 16.0207C32.4767 15.922 32.5143 15.5276 32.694 14.9315C32.96 14.0492 33.111 13.7973 33.3738 13.7973C33.4807 13.7973 33.5272 13.8268 33.5592 13.9153ZM30.118 13.97C30.1938 14.0658 30.145 14.3425 30.0237 14.5043C29.9294 14.6301 29.6169 14.7298 29.5528 14.6546C29.5338 14.6322 29.561 14.4525 29.6132 14.2551L29.7082 13.8963H29.884C29.9821 13.8963 30.0855 13.9288 30.118 13.97ZM20.4642 14.0497C20.4982 14.1067 20.4744 14.2555 20.3791 14.5818L20.2467 15.0347H19.9475C19.7752 15.0347 19.6484 15.0133 19.6484 14.9841C19.6484 14.8931 20.0145 14.1713 20.1201 14.0543C20.2339 13.9281 20.3904 13.926 20.4642 14.0497ZM39.3164 14.0217C39.3658 14.0842 39.3523 14.1804 39.2397 14.5656L39.1029 15.0336L38.4653 15.0347L38.7005 14.5428C38.8299 14.2723 38.9733 14.0279 39.0193 13.9998C39.1394 13.9265 39.2474 13.9344 39.3164 14.0217Z" fill="white"/>
<path fill-rule="evenodd" clip-rule="evenodd" d="M10.188 4.56064C10.1742 4.59836 10.1695 4.72641 10.1777 4.84525L10.1924 5.06125L10.4754 5.09956C11.0036 5.17103 11.4183 5.23691 11.5248 5.26631C11.6137 5.29076 11.6431 5.26537 11.7044 5.11144C11.7447 5.01017 11.7712 4.86915 11.7632 4.79813C11.7498 4.6782 11.72 4.66275 11.3479 4.58277C10.8446 4.47457 10.2238 4.46269 10.188 4.56064ZM8.23519 4.74808C7.95797 4.83064 6.92351 5.36793 6.66398 5.56413C6.24117 5.88388 5.86575 6.22595 5.49577 6.62865C5.11484 7.04328 4.69802 7.6416 4.69802 7.77375C4.69802 7.8475 5.05051 8.10528 5.15134 8.10528C5.17563 8.10528 5.29052 7.96609 5.40658 7.79592C5.66286 7.42035 6.31663 6.72383 6.70241 6.41537C7.09985 6.09755 7.76866 5.71198 8.2366 5.53092C8.66446 5.36535 8.70738 5.32952 8.67247 5.16712C8.55947 4.64187 8.56716 4.64924 8.23519 4.74808ZM13.1875 5.58839C13.1095 5.70139 13.0461 5.82943 13.0464 5.87299C13.0468 5.91655 13.2623 6.11923 13.5254 6.32341C14.4755 7.06085 15.3259 8.26 15.6623 9.3364L15.7454 9.60239L16.0055 9.57032C16.3193 9.53162 16.3471 9.51583 16.3469 9.37689C16.3466 9.2479 16.0693 8.4517 15.9053 8.10899C15.4404 7.13752 14.3203 5.86438 13.5787 5.4644C13.3678 5.35065 13.3471 5.35719 13.1875 5.58839ZM3.98502 9.5778C3.91446 9.76821 3.78019 10.9442 3.81736 11.0458C3.84212 11.1136 3.89951 11.1267 4.11872 11.1147L4.38953 11.0998L4.44343 10.6048C4.47305 10.3326 4.51314 9.9946 4.53252 9.85369L4.56775 9.5975L4.31779 9.51959C4.18027 9.47672 4.06052 9.44168 4.05161 9.44168C4.0427 9.44168 4.01275 9.50296 3.98502 9.5778ZM15.9514 11.3349C15.903 11.6784 15.8169 12.4433 15.811 12.5825C15.8052 12.7167 15.8236 12.7344 16.034 12.7972C16.1929 12.8448 16.2783 12.85 16.3123 12.8142C16.3878 12.735 16.5327 11.8825 16.5343 11.5082L16.5357 11.1741H16.2549C15.9741 11.1741 15.974 11.1741 15.9514 11.3349ZM4.26177 12.7961C3.99884 12.8879 3.9937 12.9137 4.13749 13.4208C4.35642 14.1928 4.86209 15.0454 5.51124 15.7369C6.00139 16.259 6.81612 16.9651 6.92837 16.9651C6.98793 16.9651 7.29194 16.5 7.29194 16.4088C7.29194 16.3954 7.20177 16.3221 7.0915 16.246C6.45731 15.8082 5.68347 14.9762 5.27429 14.2923C5.06008 13.9343 4.77098 13.2558 4.69151 12.9245C4.63336 12.6823 4.60888 12.6749 4.26177 12.7961ZM14.9714 14.4779C14.6573 14.9257 13.8832 15.7347 13.4822 16.0341C13.0427 16.3623 12.5192 16.6587 12.1025 16.8153C11.6722 16.977 11.6541 17.0004 11.7236 17.3046C11.8047 17.6593 11.8479 17.6824 12.1977 17.5587C13.0698 17.2504 13.9815 16.6203 14.7506 15.7945C15.15 15.3657 15.6868 14.6255 15.6868 14.5039C15.6868 14.4533 15.2748 14.1933 15.1947 14.1933C15.1817 14.1933 15.0812 14.3214 14.9714 14.4779ZM8.66337 17.1281C8.6388 17.196 8.6048 17.329 8.58787 17.4237C8.5591 17.5847 8.56711 17.5996 8.71077 17.6521C8.92729 17.7313 10.0033 17.8764 10.0964 17.8388C10.158 17.814 10.1707 17.7501 10.1594 17.5226C10.1457 17.2455 10.1412 17.237 10.0038 17.2238C9.72363 17.1968 8.84556 17.0599 8.7776 17.0325C8.7328 17.0145 8.69224 17.0485 8.66337 17.1281Z" fill="white"/>
<defs>
<filter id="filter0_d_0_6" x="0.933051" y="0.605885" width="20.0929" height="20.7885" filterUnits="userSpaceOnUse" color-interpolation-filters="sRGB">
<feFlood flood-opacity="0" result="BackgroundImageFix"/>
<feColorMatrix in="SourceAlpha" type="matrix" values="0 0 0 0 0 0 0 0 0 0 0 0 0 0 0 0 0 0 127 0" result="hardAlpha"/>
<feOffset/>
<feGaussianBlur stdDeviation="1.50964"/>
<feComposite in2="hardAlpha" operator="out"/>
<feColorMatrix type="matrix" values="0 0 0 0 0 0 0 0 0 0 0 0 0 0 0 0 0 0 0.5 0"/>
<feBlend mode="normal" in2="BackgroundImageFix" result="effect1_dropShadow_0_6"/>
<feBlend mode="normal" in="SourceGraphic" in2="effect1_dropShadow_0_6" result="shape"/>
</filter>
<filter id="filter1_d_0_6" x="0.225653" y="1.61231" width="18.0801" height="18.7756" filterUnits="userSpaceOnUse" color-interpolation-filters="sRGB">
<feFlood flood-opacity="0" result="BackgroundImageFix"/>
<feColorMatrix in="SourceAlpha" type="matrix" values="0 0 0 0 0 0 0 0 0 0 0 0 0 0 0 0 0 0 127 0" result="hardAlpha"/>
<feOffset dx="-1.00643"/>
<feGaussianBlur stdDeviation="1.00643"/>
<feComposite in2="hardAlpha" operator="out"/>
<feColorMatrix type="matrix" values="0 0 0 0 0 0 0 0 0 0 0 0 0 0 0 0 0 0 0.5 0"/>
<feBlend mode="normal" in2="BackgroundImageFix" result="effect1_dropShadow_0_6"/>
<feBlend mode="normal" in="SourceGraphic" in2="effect1_dropShadow_0_6" result="shape"/>
</filter>
</defs>
</svg>
