<svg width="16" height="16" viewBox="0 0 16 16" fill="none" xmlns="http://www.w3.org/2000/svg">
<g clip-path="url(#clip0_0_40)">
<path d="M6.19216 0.00981474C6.82444 0.00981474 7.30794 0.235036 7.6437 0.685478C7.98773 1.12972 8.08382 1.66385 7.93298 2.28992L6.94738 6.37593H5.22206L6.25415 2.09776C6.29341 1.93659 6.27171 1.80229 6.1901 1.69381C6.10125 1.58636 5.98037 1.53264 5.8254 1.53264C5.67044 1.53264 5.52683 1.58636 5.39253 1.69381C5.25925 1.80125 5.17247 1.93556 5.13424 2.09776L4.08562 6.44618C4.04843 6.60115 4.05979 6.73236 4.12178 6.8398C4.19617 6.94725 4.30774 7.00097 4.45651 7.00097H4.77885C5.25615 7.00097 5.62601 7.12908 5.88739 7.38426C6.09298 7.59295 6.22316 7.87499 6.27791 8.23142C6.34197 8.63537 6.31821 9.04242 6.20559 9.45257L5.13011 13.9115L5.12805 13.9219C4.93279 14.5066 4.56913 14.9984 4.03603 15.3951C3.50294 15.7918 2.93782 15.9902 2.33861 15.9902C1.7394 15.9902 1.27966 15.7918 0.938726 15.3951C0.596761 14.9984 0.469687 14.5108 0.555436 13.9322L1.58959 9.64473H3.31285L2.28282 13.9126C2.24563 14.0675 2.26732 14.1987 2.34894 14.3062C2.43056 14.4136 2.54833 14.4674 2.7033 14.4674C2.85827 14.4674 3.00498 14.4136 3.14548 14.3062C3.27875 14.1987 3.3645 14.0675 3.40169 13.9126L4.47511 9.4629C4.56603 9.08581 4.44308 8.89779 4.10732 8.89779H3.99677C3.35107 8.89779 2.86344 8.6457 2.5349 8.14154C2.24976 7.70453 2.17744 7.19623 2.31691 6.61768L3.36244 2.29095C3.51327 1.66591 3.86453 1.13075 4.41519 0.686511C4.97411 0.236069 5.56712 0.00981474 6.19216 0.00981474Z" fill="white"/>
<path d="M13.3875 10.6329L12.6426 13.7199C12.4918 14.346 12.1364 14.8832 11.5775 15.3336C11.0268 15.7779 10.4349 16 9.80259 16C9.17031 16 8.69198 15.7779 8.34898 15.3336C8.01425 14.8832 7.92127 14.3449 8.0721 13.7199L10.8316 2.27907C10.9824 1.65403 11.3347 1.11577 11.8864 0.665332C12.4443 0.221089 13.0352 0 13.6613 0C14.2874 0 14.7781 0.222122 15.1149 0.665332C15.4569 1.11577 15.5519 1.65403 15.4011 2.27907L14.6614 5.34642H12.9361L13.7243 2.07761C13.7615 1.92264 13.7398 1.79144 13.6582 1.68399C13.5714 1.56932 13.4506 1.51249 13.2956 1.51249C13.1406 1.51249 12.996 1.56932 12.8606 1.68399C12.7201 1.79144 12.6313 1.92264 12.5941 2.07761L9.73647 13.9224C9.69928 14.0774 9.7251 14.2086 9.81292 14.316C9.89454 14.4235 10.0123 14.4772 10.1673 14.4772C10.3223 14.4772 10.469 14.4235 10.6095 14.316C10.7427 14.2086 10.8285 14.0774 10.8657 13.9224L11.6591 10.6329H13.3875Z" fill="white"/>
</g>
<defs>
<clipPath id="clip0_0_40">
<rect width="16" height="16" fill="white"/>
</clipPath>
</defs>
</svg>
