<svg viewBox="0 0 16 16" xmlns="http://www.w3.org/2000/svg">
  <g clip-path="url(#clip0_17731_7845)" fill="#9aa1b1">
    <path d="M7.79324 3.0699L7.01897 2.54704C6.59314 2.25947 6.23886 2.02457 6.23169 2.02503C6.18809 2.02784 5.65442 2.22606 5.464 2.31017C4.73077 2.63404 3.99292 3.16314 3.43882 3.76243C3.26192 3.95374 3.01302 4.26061 2.89663 4.43085L2.81985 4.54318L2.92472 4.97335C3.11033 5.73476 3.19788 6.04951 3.23412 6.08573C3.25776 6.10936 5.54864 6.9026 5.57016 6.8946C5.57776 6.89177 6.08578 6.47962 6.69907 5.97871L7.81413 5.06797L7.80371 4.34098C7.79797 3.94113 7.79327 3.49156 7.79325 3.34194L7.79324 3.0699Z"/>
    <path d="M12.9427 4.21315C12.2131 3.25982 11.1896 2.51791 10.0581 2.12219C9.95426 2.08587 9.86074 2.05682 9.85032 2.05767C9.83991 2.05852 9.4897 2.28064 9.07208 2.55128L8.31277 3.04333L8.30546 5.08395L9.42226 5.97809C10.0365 6.46987 10.5453 6.87399 10.5529 6.87611C10.5605 6.87825 11.0955 6.69476 11.7417 6.46836L12.9166 6.05672L13.0718 5.37061C13.1571 4.99324 13.2273 4.66763 13.2276 4.64699C13.2283 4.60846 13.1259 4.45239 12.9427 4.21315Z"/>
    <path d="M14.2194 7.57075L13.6611 7.04236C13.354 6.75174 13.1005 6.51444 13.0976 6.515C13.0808 6.51832 10.6788 7.36334 10.6747 7.36735C10.672 7.37005 10.49 7.97544 10.2702 8.71266C10.0505 9.4499 9.86698 10.0649 9.86247 10.0794C9.85684 10.0974 10.0793 10.361 10.5726 10.921C11.3729 11.8292 11.575 12.0623 11.5838 12.0871C11.5894 12.1029 12.9837 11.6854 13.0345 11.6527C13.0635 11.634 13.33 11.2251 13.4314 11.0437C13.703 10.5578 13.9131 10.0258 14.0436 9.49403C14.1724 8.96874 14.2194 8.5634 14.2194 7.97752V7.57075Z"/>
    <path d="M5.46308 7.38856C5.45448 7.36791 5.13164 7.25394 4.25243 6.96118C3.59303 6.74161 3.04273 6.56243 3.02954 6.56301C3.01635 6.56358 2.90845 6.63235 2.78975 6.71584C2.67106 6.79931 2.40131 6.97951 2.1903 7.11629C1.97929 7.25306 1.80498 7.3663 1.80293 7.36793C1.80089 7.36956 1.79077 7.51232 1.78043 7.68519C1.72032 8.69088 1.93584 9.75471 2.39031 10.6956C2.59189 11.1129 2.89412 11.6055 2.95698 11.6191C3.10147 11.6503 4.68259 11.8661 4.69181 11.8558L5.42753 11.0357C5.82564 10.5919 6.16829 10.2105 6.189 10.188L6.22667 10.1472L5.85073 8.78196C5.64398 8.03108 5.46953 7.40405 5.46308 7.38856Z"/>
    <path d="M11.0759 12.405C11.0775 12.3792 10.8471 12.102 10.247 11.4075L9.41577 10.4458L6.64371 10.4445L6.43819 10.6962C6.32515 10.8346 5.98266 11.2557 5.67711 11.632L5.12157 12.3162L5.4036 13.0381C5.55871 13.4351 5.69406 13.7685 5.70437 13.779C5.73238 13.8076 6.20317 13.9633 6.45844 14.0285C6.9722 14.1597 7.28441 14.1999 7.87316 14.2105C8.51848 14.2222 8.9303 14.1786 9.50369 14.038C9.71345 13.9866 10.1369 13.85 10.3269 13.7725L10.4388 13.7269L10.5698 13.4718C10.7814 13.0593 11.0735 12.4437 11.0759 12.405Z"/>
    <path fill-rule="evenodd" clip-rule="evenodd" d="M11.5633 0.834243C10.696 0.401562 9.80724 0.142767 8.81631 0.0343733C8.59579 0.0102467 7.74216 -0.00947001 7.53747 0.00483021C5.50677 0.146698 3.74699 0.938739 2.34173 2.34331C1.93275 2.7521 1.64445 3.10167 1.3399 3.55806C0.610139 4.6516 0.174948 5.86175 0.029815 7.20102C-0.00570491 7.52886 -0.0106284 8.39328 0.0212149 8.71093C0.125776 9.75368 0.384167 10.661 0.833441 11.563C2.06674 14.039 4.48569 15.7023 7.23374 15.9638C8.74957 16.108 10.2722 15.8199 11.6218 15.1335C12.8576 14.5049 13.9259 13.5547 14.675 12.4178C15.4057 11.309 15.8391 10.0826 15.9721 8.74744C16.0055 8.41168 16.0098 7.64832 15.9801 7.32885C15.9209 6.69294 15.7926 6.06303 15.608 5.5023C15.0563 3.8262 13.9606 2.37231 12.5032 1.38249C12.1685 1.15518 11.9433 1.02381 11.5633 0.834243ZM7.26571 0.922809L7.51349 0.899401C7.6837 0.883056 8.59684 0.903715 8.80033 0.928513C9.64882 1.03187 10.399 1.25205 11.1422 1.61582C13.0886 2.5685 14.5253 4.414 14.9617 6.52196C15.184 7.59573 15.1619 8.69595 14.8968 9.7495C14.5544 11.1107 13.7726 12.3945 12.7248 13.3166C11.7629 14.1629 10.6423 14.7196 9.38525 14.9756C8.61381 15.1327 7.66821 15.1502 6.87095 15.0221C4.04027 14.5676 1.7522 12.4494 1.08042 9.66162C0.935333 9.05951 0.895769 8.70306 0.895961 7.99992C0.896137 7.40971 0.911147 7.21505 0.992306 6.75046C1.20469 5.53472 1.7451 4.38455 2.56359 3.40627C2.8539 3.05928 3.40192 2.5472 3.78086 2.26887C4.80392 1.51738 6.04641 1.03745 7.26571 0.922809Z"/>
  </g>
  <defs>
    <clipPath id="clip0_17731_7845">
      <rect width="16" height="16"/>
    </clipPath>
  </defs>
</svg>
