<svg width="16" height="16" viewBox="0 0 16 16" fill="none" xmlns="http://www.w3.org/2000/svg">
<g id="trading-games">
<path id="Vector" d="M8 16.0005C12.4183 16.0005 16 12.4188 16 8.00053C16 3.58226 12.4183 0.000534058 8 0.000534058C3.58172 0.000534058 0 3.58226 0 8.00053C0 8.89169 0.145711 9.74881 0.414608 10.5494L3.96596 6.99786C4.102 6.86181 4.29203 6.79418 4.48343 6.8137C4.67483 6.83321 4.8473 6.9378 4.95309 7.0985L6.58553 9.57838L10.431 5.73288H9.31539C8.96193 5.73288 8.67539 5.44634 8.67539 5.09288C8.67539 4.73942 8.96193 4.45288 9.31539 4.45288H11.9761C12.3296 4.45288 12.6161 4.73942 12.6161 5.09288V7.75496C12.6161 8.10843 12.3296 8.39497 11.9761 8.39497C11.6226 8.39497 11.3361 8.10843 11.3361 7.75496V6.63798L6.93531 11.0388C6.79927 11.1748 6.60924 11.2425 6.41784 11.2229C6.22644 11.2034 6.05397 11.0988 5.94819 10.9381L4.31576 8.45828L0.963737 11.8105C2.3179 14.3061 4.96107 16.0005 8 16.0005Z" fill="#9AA1B1"/>
</g>
</svg>
