<svg width="16" height="16" viewBox="0 0 16 16" fill="none" xmlns="http://www.w3.org/2000/svg">
<g id="twain-sport">
<g id="Vector">
<path d="M0 5.90926C0 5.61652 0.237362 5.37933 0.529924 5.37933H7.66871C7.96127 5.37933 8.19864 5.61652 8.19864 5.90926C8.19864 6.20199 7.96127 6.43918 7.66871 6.43918H4.59026V10.0907C4.59026 10.3834 4.35289 10.6206 4.06033 10.6206C3.76777 10.6206 3.53041 10.3834 3.53041 10.0907V6.43918H0.529924C0.432633 6.43918 0.341552 6.41296 0.263237 6.36725C0.105571 6.27548 0 6.1047 0 5.90926Z" fill="#9AA1B1"/>
<path d="M14.8459 10.5733C16.3733 10.1587 16.4058 7.91206 14.817 7.49776C14.7638 7.4798 14.6667 7.47007 14.6475 7.47007H9.96878C9.86126 7.47007 9.74942 7.46073 9.66084 7.39979C9.34526 7.18266 9.36771 6.6739 9.71151 6.49104C9.80095 6.44347 9.90553 6.43918 10.0068 6.43918H15.2557C15.5483 6.43918 15.7856 6.20193 15.7856 5.90926C15.7856 5.61659 15.5483 5.37933 15.2557 5.37933H9.80611C8.10386 5.51404 7.92893 7.93229 9.43071 8.46208C9.50743 8.50528 9.596 8.52992 9.69032 8.52992H14.3554C14.4987 8.52992 14.6515 8.53973 14.7602 8.63316C15.0481 8.88057 14.988 9.39862 14.5972 9.53973C14.5495 9.55693 14.4982 9.56081 14.4476 9.56081H9.12255C8.82989 9.56081 8.59263 9.79807 8.59263 10.0907C8.59263 10.3834 8.82989 10.6207 9.12255 10.6207L14.4612 10.6143C14.5905 10.6141 14.7211 10.6072 14.8459 10.5733Z" fill="#9AA1B1"/>
</g>
</g>
</svg>
