<svg width="16" height="12" viewBox="0 0 16 12" fill="none" xmlns="http://www.w3.org/2000/svg">
<path d="M14.7026 1.88655C14.0514 1.91101 13.5225 2.44144 13.5033 3.08844C13.4897 3.55528 13.7359 3.96614 14.1088 4.1887C13.7184 5.10091 12.8478 7.00415 11.0417 6.91339C9.43316 6.83241 8.65721 4.36125 8.33927 3.03002C9.04053 2.86616 9.55765 2.2284 9.52892 1.47542C9.49773 0.665103 8.82328 0.0118513 8.00684 0.00016669C7.14224 -0.0123331 6.4377 0.679776 6.4377 1.53574C6.4377 2.27215 6.95975 2.88735 7.65635 3.03654C7.33732 4.36913 6.56137 6.83295 4.9553 6.91366C3.15004 7.00442 2.27942 5.10281 1.88871 4.19033C2.26273 3.96805 2.5098 3.55718 2.49639 3.0898C2.47779 2.44225 1.9489 1.91155 1.29717 1.8871C0.585519 1.8602 0 2.42513 0 3.12594C0 3.7743 0.501248 4.30609 1.13985 4.36098C1.26516 5.14466 2.33223 10.884 2.33223 10.884C2.44824 11.5296 3.01378 12 3.67427 12H12.3323C12.9922 12 13.5572 11.5307 13.6741 10.8856C13.6741 10.8856 14.7556 4.99602 14.8574 4.36125C15.4974 4.30772 16 3.77539 16 3.12621C16 2.4254 15.4145 1.86047 14.7028 1.88737L14.7026 1.88655Z" fill="#D0D0D0"/>
</svg>
