<!-- icon666.com - MILLIONS OF FREE VECTOR ICONS --><svg viewBox="0 0 176 176" xmlns="http://www.w3.org/2000/svg"><g id="Layer_2" data-name="Layer 2"><g id="_19.vk" data-name="19.vk"><path id="background" d="m144.52 173a532.59 532.59 0 0 1 -113 0 32.07 32.07 0 0 1 -28.52-28.48 532.59 532.59 0 0 1 0-113 32.07 32.07 0 0 1 28.48-28.52 532.59 532.59 0 0 1 113 0 32.07 32.07 0 0 1 28.52 28.48 532.59 532.59 0 0 1 0 113 32.07 32.07 0 0 1 -28.48 28.52z" fill="#4169e1"></path><path id="icon" d="m138.72 119.44c-2.56.36-15.08 0-15.73 0a12.3 12.3 0 0 1 -8.69-3.44c-2.64-2.54-5-5.34-7.58-8a21 21 0 0 0 -2.47-2.23c-2.06-1.59-4.1-1.23-5.07 1.2a47.26 47.26 0 0 0 -1.58 8.03c-.17 2.46-1.73 4-4.49 4.17-1.71.09-3.42.12-5.11.08a39 39 0 0 1 -17.69-4.37 48.18 48.18 0 0 1 -15.13-13.23c-6.67-8.52-12-17.88-16.76-27.53-.25-.48-5.13-10.86-5.25-11.35-.44-1.64 0-3.21 1.35-3.75.86-.33 16.94 0 17.21 0a5.63 5.63 0 0 1 5.4 3.88 83.8 83.8 0 0 0 12.08 21.18 11.6 11.6 0 0 0 2.45 2.24c1.31.89 2.55.58 3.09-.93a26.36 26.36 0 0 0 1.12-6.45c.09-4.34 0-7.2-.24-11.53-.16-2.78-1.14-5.22-5.24-6-1.26-.22-1.37-1.26-.56-2.3 1.69-2.16 4-2.5 6.59-2.63 3.86-.22 7.72-.07 11.58 0h.84a23.91 23.91 0 0 1 5 .51 4.6 4.6 0 0 1 3.67 4.1 16.15 16.15 0 0 1 .25 3.32c-.1 4.74-.33 9.47-.38 14.21a24.35 24.35 0 0 0 .51 5.59c.55 2.52 2.28 3.15 4 1.33a63.12 63.12 0 0 0 6.11-7.54 76.3 76.3 0 0 0 8-15.55c1.12-2.81 2-3.43 5-3.43h17.06a10.12 10.12 0 0 1 3 .4 2.59 2.59 0 0 1 1.79 3.35c-.84 3.74-2.86 6.93-5 10-3.47 4.92-7.13 9.71-10.68 14.55a19.92 19.92 0 0 0 -1.23 2c-1.34 2.41-1.24 3.76.7 5.77 3.1 3.18 6.41 6.17 9.4 9.45a55.18 55.18 0 0 1 5.92 7.69c2.19 3.39.84 6.63-3.24 7.21z" fill="#fff"></path></g></g></svg>