<svg viewBox="0 0 16 16" xmlns="http://www.w3.org/2000/svg">
  <g fill="#9aa1b1" clip-path="url(#clip0_17731_7853)">
    <path fill-rule="evenodd" clip-rule="evenodd" d="M13.2095 2.78191C15.8695 4.17084 15.9957 10.2989 15.9957 10.3579C16.0126 10.9555 16.0546 12.8411 14.4553 13.4977C13.3862 13.8933 12.334 13.7839 11.568 13.2115C11.265 12.9842 11.0798 12.7485 10.903 12.5212C10.8902 12.5051 10.8776 12.4891 10.865 12.4732C10.6541 12.2066 10.4659 11.9688 10.0528 11.7384C9.2784 11.3091 6.82885 11.2333 5.9534 11.7384C5.43992 12.033 5.25473 12.2855 5.06112 12.5549C5.05299 12.5657 5.04482 12.5767 5.03658 12.5877C4.89116 12.7821 4.725 13.0043 4.43821 13.2115C3.97524 13.5566 3.41125 13.7334 2.80517 13.7334C2.40113 13.7334 1.98024 13.6576 1.55935 13.4977C-0.0333698 12.8506 -0.00745367 11.01 0.00169138 10.3606C0.00182616 10.351 0.0019573 10.3417 0.00207957 10.3326C0.00207957 10.2905 0.145181 4.16242 2.78834 2.78191L2.92302 2.72299C3.51226 2.44521 4.9096 1.79704 6.66049 2.83242C7.8053 3.52267 8.13359 3.59001 9.33732 2.84084C11.0377 1.78021 12.536 2.47046 13.1 2.73141L13.1926 2.7735C13.201 2.7735 13.2095 2.78191 13.2095 2.78191ZM11.9211 6.08995C11.9211 5.73649 11.6345 5.44995 11.2811 5.44995C10.9276 5.44995 10.6411 5.73657 10.6411 6.09003C10.6411 6.44349 10.9276 6.73003 11.2811 6.73003C11.6345 6.73003 11.9211 6.44341 11.9211 6.08995ZM10.0531 7.95802C10.4066 7.95802 10.6931 7.67148 10.6931 7.31802C10.6931 6.96456 10.4065 6.67802 10.053 6.67802C9.69955 6.67802 9.41301 6.96456 9.41301 7.31802C9.41301 7.67148 9.69963 7.95802 10.0531 7.95802ZM13.1492 7.31802C13.1492 7.67148 12.8627 7.95802 12.5092 7.95802C12.1557 7.95802 11.8691 7.67148 11.8691 7.31802C11.8691 6.96456 12.1557 6.67802 12.5091 6.67802C12.8626 6.67802 13.1492 6.96456 13.1492 7.31802ZM11.2811 7.90601C11.6345 7.90601 11.9211 8.19254 11.9211 8.54601C11.9211 8.89947 11.6345 9.18609 11.2811 9.18609C10.9276 9.18609 10.6411 8.89955 10.6411 8.54609C10.6411 8.19262 10.9276 7.90601 11.2811 7.90601ZM5.18129 6.09776C5.18129 5.7443 4.89475 5.45776 4.54129 5.45776C4.18783 5.45776 3.90129 5.7443 3.90129 6.09776V6.67808H3.32105C2.96759 6.67808 2.68105 6.96461 2.68105 7.31808C2.68105 7.67154 2.96759 7.95808 3.32105 7.95808H3.90129V8.53839C3.90129 8.89185 4.18783 9.17839 4.54129 9.17839C4.89475 9.17839 5.18129 8.89185 5.18129 8.53839V7.95808H5.76168C6.11514 7.95808 6.40168 7.67154 6.40168 7.31808C6.40168 6.96461 6.11514 6.67808 5.76168 6.67808H5.18129V6.09776Z"/>
  </g>
</svg>

